<svg width="32" height="36" viewBox="0 0 32 36" fill="none" xmlns="http://www.w3.org/2000/svg">
<path d="M2.6358 0C2.1768 0 1.6872 0.18 1.3506 0.54C1.014 0.9 0.799805 1.35 0.799805 1.8V34.2C0.799805 34.65 0.983404 35.13 1.3506 35.46C1.7178 35.82 2.1768 36 2.6358 36H29.5637C30.0227 36 30.5123 35.82 30.8489 35.46C31.2161 35.1 31.3997 34.65 31.3997 34.2V10.2L20.9957 0H2.6358Z" fill="#8F9BB3"/>
<path d="M31.3996 10.2H22.8317C22.3727 10.2 21.8831 10.02 21.5465 9.66C21.1793 9.33 20.9957 8.85 20.9957 8.4V0L31.3996 10.2Z" fill="white" fill-opacity="0.5"/>
<path d="M15.9713 20.8548L9.85314 17.3322V24.3774L15.9713 27.9V20.8548Z" fill="#BCC3D1"/>
<path d="M15.9713 20.8548L22.0895 17.3322V24.3774L15.9713 27.9V20.8548Z" fill="#A5AFC2"/>
<path d="M15.9695 20.8644L9.85314 17.3322L15.9695 13.9951L22.0895 17.3322L15.9695 20.8644Z" fill="white"/>
</svg>
