<svg width="32" height="36" viewBox="0 0 32 36" fill="none" xmlns="http://www.w3.org/2000/svg">
<path d="M2.43585 0C1.97685 0 1.48725 0.18 1.15065 0.54C0.814054 0.9 0.599854 1.35 0.599854 1.8V34.2C0.599854 34.65 0.783454 35.13 1.15065 35.46C1.51785 35.82 1.97685 36 2.43585 36H29.3639C29.8229 36 30.3125 35.82 30.6491 35.46C31.0163 35.1 31.1999 34.65 31.1999 34.2V10.2L20.7959 0H2.43585Z" fill="#C6B9AD"/>
<path d="M31.1997 10.2H22.6317C22.1727 10.2 21.6831 10.02 21.3465 9.66C20.9793 9.33 20.7957 8.85 20.7957 8.4V0L31.1997 10.2Z" fill="#DCD2C8"/>
<path d="M15.0842 22.8235H12.836L12.3534 24.576H10.8181L13.0992 17.555H14.8868L17.157 24.576H15.5668L15.0842 22.8235ZM14.7772 21.6838L14.5797 20.9634C14.492 20.648 14.3604 20.1534 14.1849 19.4796L13.9766 18.684H13.9327C13.7134 19.6086 13.5196 20.3684 13.3514 20.9634L13.154 21.6838H14.7772Z" fill="white"/>
<path d="M17.8519 19.2538H19.3434V24.576H17.8519V19.2538ZM18.5976 18.4259C18.349 18.4259 18.1443 18.3542 17.9835 18.2109C17.8299 18.0603 17.7532 17.8704 17.7532 17.641C17.7532 17.4116 17.8299 17.2253 17.9835 17.0819C18.1443 16.9314 18.349 16.8561 18.5976 16.8561C18.8462 16.8561 19.0473 16.9314 19.2008 17.0819C19.3617 17.2253 19.4421 17.4116 19.4421 17.641C19.4421 17.8704 19.3617 18.0603 19.2008 18.2109C19.0473 18.3542 18.8462 18.4259 18.5976 18.4259Z" fill="white"/>
</svg>
