<svg width="32" height="36" viewBox="0 0 32 36" fill="none" xmlns="http://www.w3.org/2000/svg">
<path d="M2.33587 0C1.87687 0 1.38727 0.18 1.05068 0.54C0.714077 0.9 0.499878 1.35 0.499878 1.8V34.2C0.499878 34.65 0.683477 35.13 1.05068 35.46C1.41787 35.82 1.87687 36 2.33587 36H29.2637C29.7227 36 30.2123 35.82 30.5489 35.46C30.9161 35.1 31.0997 34.65 31.0997 34.2V10.2L20.6958 0H2.33587Z" fill="#899CE1"/>
<path fill-rule="evenodd" clip-rule="evenodd" d="M23.2129 15.3717V15.36H8.3335V16.5756H8.33786V18.965H8.3335V20.1806H8.33786V23.8536H8.33459V25.0693H8.33786V28.7423H8.33531V29.9579H8.33786V29.9594H9.57781V29.9579H13.3145V29.9594H14.5544V29.9579H17.0088V29.9594H18.2488V29.9579H21.9773V29.9594H23.2172V15.3717H23.2129ZM21.9773 28.7423V25.0693H18.2488V28.7423H21.9773ZM17.0088 28.7423V25.0693H14.5544V28.7423H17.0088ZM13.3145 28.7423V25.0693H9.57781V28.7423H13.3145ZM9.57781 23.8536H13.3145V20.1806H9.57781V23.8536ZM9.57781 18.965H21.9773V16.5756H9.57781V18.965ZM21.9773 20.1806H18.2488V23.8536H21.9773V20.1806ZM17.0088 23.8536V20.1806H14.5544V23.8536H17.0088Z" fill="white"/>
<path d="M31.0997 10.2H22.5317C22.0727 10.2 21.5831 10.02 21.2465 9.66C20.8793 9.33 20.6957 8.85 20.6957 8.4V0L31.0997 10.2Z" fill="#C4CEF0"/>
</svg>
