<svg width="32" height="36" viewBox="0 0 32 36" fill="none" xmlns="http://www.w3.org/2000/svg">
<path d="M2.6358 0C2.1768 0 1.6872 0.18 1.3506 0.54C1.014 0.9 0.799805 1.35 0.799805 1.8V34.2C0.799805 34.65 0.983405 35.13 1.3506 35.46C1.7178 35.82 2.1768 36 2.6358 36H29.5638C30.0228 36 30.5124 35.82 30.849 35.46C31.2162 35.1 31.3998 34.65 31.3998 34.2V10.2L20.9958 0H2.6358Z" fill="#5291FD"/>
<path d="M8.63348 16.8961H10.7121L12.7907 24.5695H12.8164L15.1003 16.8961H17.1019L19.4114 24.5695L21.5157 16.8961H23.5173L20.4379 26.7835H18.3593L16.0754 19.1856H16.0497L13.7402 26.7583H11.6616L8.63348 16.8961Z" fill="white"/>
<path d="M31.3997 10.2H22.8317C22.3727 10.2 21.8831 10.02 21.5465 9.66C21.1793 9.33 20.9957 8.85 20.9957 8.4V0L31.3997 10.2Z" fill="#90B9FF"/>
</svg>
