<svg width="31" height="36" viewBox="0 0 31 36" fill="none" xmlns="http://www.w3.org/2000/svg">
<path d="M1.83599 0C1.37699 0 0.887396 0.18 0.550798 0.54C0.214199 0.9 0 1.35 0 1.8V34.2C0 34.65 0.183599 35.13 0.550798 35.46C0.917996 35.82 1.37699 36 1.83599 36H28.7639C29.2229 36 29.7125 35.82 30.0491 35.46C30.4163 35.1 30.5999 34.65 30.5999 34.2V10.2L20.1959 0H1.83599Z" fill="url(#paint0_linear_2_10795)"/>
<path d="M20.4133 25.1183C20.0638 25.5726 19.3916 26.2943 18.316 26.8555C17.2943 27.3634 16.2994 27.5237 15.4928 27.497C15.2508 27.497 15.0357 27.497 14.8475 27.4703C14.6862 27.0159 14.498 26.4012 14.4442 25.6795C14.3904 24.9044 14.4442 23.4879 15.3046 22.098C15.9768 20.9755 16.891 20.3607 17.4556 20.04C17.4556 20.2004 17.4556 20.3607 17.4556 20.5211C17.4556 20.7884 17.5094 21.0022 17.5094 21.1358C17.5632 21.5368 17.8321 22.8464 18.9076 23.9957C19.4453 24.557 20.01 24.9312 20.4133 25.1183Z" fill="#80BBFF"/>
<path d="M20.4133 25.1183C20.0638 25.5726 19.3916 26.2943 18.316 26.8555C17.2943 27.3634 16.2994 27.5237 15.4928 27.497C15.2508 27.497 15.0357 27.497 14.8475 27.4703C14.6862 27.0159 14.498 26.4012 14.4442 25.6795C14.3904 24.9044 14.4442 23.4879 15.3046 22.098C15.9768 20.9755 16.891 20.3607 17.4556 20.04C17.4556 20.2004 17.4556 20.3607 17.4556 20.5211C17.4556 20.7884 17.5094 21.0022 17.5094 21.1358C17.5632 21.5368 17.8321 22.8464 18.9076 23.9957C19.4453 24.557 20.01 24.9312 20.4133 25.1183Z" fill="url(#paint1_linear_2_10795)"/>
<path d="M17.6439 18.7571C17.4557 19.4253 17.4288 20.0401 17.4557 20.4944C17.1869 20.6815 16.8104 20.9755 16.4609 21.3497C15.5736 22.3386 15.2778 23.381 15.1703 23.7819C15.0627 24.1828 14.8476 25.2787 15.1971 26.6151C15.2778 26.9625 15.3854 27.2298 15.4929 27.4703C14.7132 27.4703 14.0947 27.3367 13.8527 27.2565C13.5032 27.1496 12.5352 26.8823 11.5942 26.1874C11.4059 26.0538 11.2177 25.8934 11.0564 25.733C11.0833 25.2787 11.1639 24.6907 11.379 24.0492C11.7017 23.087 12.1588 22.4188 12.4815 21.9912C12.0781 22.0714 11.6748 22.1515 11.2715 22.2585C11.4866 21.6705 11.8899 20.8419 12.6697 20.0668C14.4981 18.276 16.9717 18.276 17.8322 18.3295C17.7246 18.4899 17.6977 18.6235 17.6439 18.7571Z" fill="url(#paint2_linear_2_10795)"/>
<path d="M17.6439 18.7571C17.4557 19.4253 17.4288 20.0401 17.4557 20.4944C17.1869 20.6815 16.8104 20.9755 16.4609 21.3497C15.5736 22.3386 15.2778 23.381 15.1703 23.7819C15.0627 24.1828 14.8476 25.2787 15.1971 26.6151C15.2778 26.9625 15.3854 27.2298 15.4929 27.4703C14.7132 27.4703 14.0947 27.3367 13.8527 27.2565C13.5032 27.1496 12.5352 26.8823 11.5942 26.1874C11.4059 26.0538 11.2177 25.8934 11.0564 25.733C11.0833 25.2787 11.1639 24.6907 11.379 24.0492C11.7017 23.087 12.1588 22.4188 12.4815 21.9912C12.0781 22.0714 11.6748 22.1515 11.2715 22.2585C11.4866 21.6705 11.8899 20.8419 12.6697 20.0668C14.4981 18.276 16.9717 18.276 17.8322 18.3295C17.7246 18.4899 17.6977 18.6235 17.6439 18.7571Z" fill="url(#paint3_linear_2_10795)"/>
<path d="M17.6439 18.7571C17.4557 19.4253 17.4288 20.0401 17.4557 20.4944C17.1869 20.6815 16.8104 20.9755 16.4609 21.3497C15.5736 22.3386 15.2778 23.381 15.1703 23.7819C15.0627 24.1828 14.8476 25.2787 15.1971 26.6151C15.2778 26.9625 15.3854 27.2298 15.4929 27.4703C14.7132 27.4703 14.0947 27.3367 13.8527 27.2565C13.5032 27.1496 12.5352 26.8823 11.5942 26.1874C11.4059 26.0538 11.2177 25.8934 11.0564 25.733C11.0833 25.2787 11.1639 24.6907 11.379 24.0492C11.7017 23.087 12.1588 22.4188 12.4815 21.9912C12.0781 22.0714 11.6748 22.1515 11.2715 22.2585C11.4866 21.6705 11.8899 20.8419 12.6697 20.0668C14.4981 18.276 16.9717 18.276 17.8322 18.3295C17.7246 18.4899 17.6977 18.6235 17.6439 18.7571Z" fill="url(#paint4_linear_2_10795)"/>
<path opacity="0.8" d="M17.6439 18.7571C17.4557 19.4253 17.4288 20.0401 17.4557 20.4944C17.1869 20.6815 16.8104 20.9755 16.4609 21.3497C15.5736 22.3386 15.2778 23.381 15.1703 23.7819C15.0627 24.1828 14.8476 25.2787 15.1971 26.6151C15.2778 26.9625 15.3854 27.2298 15.4929 27.4703C14.7132 27.4703 14.0947 27.3367 13.8527 27.2565C13.5032 27.1496 12.5352 26.8823 11.5942 26.1874C11.4059 26.0538 11.2177 25.8934 11.0564 25.733C11.0833 25.2787 11.1639 24.6907 11.379 24.0492C11.7017 23.087 12.1588 22.4188 12.4815 21.9912C12.0781 22.0714 11.6748 22.1515 11.2715 22.2585C11.4866 21.6705 11.8899 20.8419 12.6697 20.0668C14.4981 18.276 16.9717 18.276 17.8322 18.3295C17.7246 18.4899 17.6977 18.6235 17.6439 18.7571Z" fill="url(#paint5_linear_2_10795)"/>
<path opacity="0.5" d="M15.4929 27.497C14.9551 27.497 14.5249 27.4436 14.1754 27.3634C13.8258 27.2832 13.2074 27.1496 12.5083 26.7754C12.0243 26.5348 11.6748 26.2676 11.5941 26.2141C11.2177 25.9201 10.9219 25.6261 10.7068 25.3856C10.7875 24.6372 10.9488 24.0492 11.1101 23.675C11.621 22.3119 12.4545 21.4833 12.9116 21.4031C13.1267 21.3497 13.4225 21.323 13.4225 21.323C13.6107 21.2962 13.772 21.2962 13.8796 21.2962C14.0678 21.2962 14.2291 21.2962 14.3905 21.2962C14.3098 21.4299 14.2291 21.617 14.1216 21.8575C13.9065 22.3386 13.5838 23.0335 13.5838 23.8888C13.5838 24.9579 14.0409 25.733 14.2291 26.0805C14.6056 26.8288 15.1433 27.2832 15.4929 27.497Z" fill="url(#paint6_linear_2_10795)"/>
<path d="M19.6068 15.8973C19.2034 16.1913 18.3968 16.9129 17.8859 18.1157C17.7784 18.3295 17.7246 18.5433 17.6708 18.7572C17.4019 18.7572 16.9986 18.7572 16.5953 18.8106C15.8693 18.9175 15.2778 19.1046 14.9282 19.265C14.5518 19.4253 13.9603 19.7193 13.3419 20.2806C12.7772 20.7617 12.4277 21.2695 12.1857 21.6437C12.4008 21.5635 12.6428 21.4834 12.9116 21.4299C13.2881 21.3497 13.6107 21.323 13.8796 21.323C13.6376 21.5101 13.315 21.8041 12.9923 22.1783C12.6697 22.5792 12.2663 23.1405 11.9975 23.8889C11.6479 24.851 11.5941 25.6796 11.621 26.2142C11.0833 25.8132 10.5455 25.252 10.1153 24.5303C9.95397 24.2363 8.93223 22.4188 9.49687 20.1737C9.79264 19.0244 10.3842 18.2493 10.7337 17.8217C10.4917 17.8751 10.196 17.9821 9.90019 18.1424C9.55065 18.3028 9.28177 18.5166 9.06667 18.7037C9.30866 18.1424 10.2497 16.1111 12.589 15.042C14.4712 14.1867 16.8373 14.1333 18.6926 15.2024C19.0421 15.4429 19.3648 15.7102 19.6068 15.8973Z" fill="white"/>
<path d="M21.0856 19.5053C20.8167 19.4786 20.5478 19.4786 20.252 19.5053C19.6874 19.5588 19.2572 19.6657 19.0152 19.7459C18.6657 19.8528 18.3968 19.9597 18.1817 20.0933C18.2086 19.5855 18.2892 19.1579 18.3968 18.8639C18.4505 18.7035 18.5043 18.5699 18.5581 18.4362C19.0152 18.5164 19.553 18.6768 20.1445 18.944C20.4671 19.1311 20.8167 19.2915 21.0856 19.5053Z" fill="#B2D6FF"/>
<path d="M21.0856 19.5053C20.8167 19.4786 20.5478 19.4786 20.252 19.5053C19.6874 19.5588 19.2572 19.6657 19.0152 19.7459C18.6657 19.8528 18.3968 19.9597 18.1817 20.0933C18.2086 19.5855 18.2892 19.1579 18.3968 18.8639C18.4505 18.7035 18.5043 18.5699 18.5581 18.4362C19.0152 18.5164 19.553 18.6768 20.1445 18.944C20.4671 19.1311 20.8167 19.2915 21.0856 19.5053Z" fill="url(#paint7_linear_2_10795)"/>
<path d="M21.8921 20.8416C21.677 20.5743 21.3813 20.2803 21.0317 20.0131C20.7629 19.7992 20.494 19.6389 20.252 19.5052C19.8755 19.2914 19.5798 19.1845 19.3647 19.1043C18.9882 18.9707 18.6387 18.8905 18.3698 18.8371C18.4774 18.5163 18.5849 18.249 18.6656 18.0887C18.7194 18.0085 18.8269 17.7679 19.0151 17.5007C19.3647 16.9928 19.7949 16.6187 20.1175 16.3781C20.2789 16.485 20.494 16.6187 20.7091 16.8325C20.7897 16.9127 21.0855 17.2067 21.3813 17.661C21.7039 18.2223 21.8384 18.7301 21.8921 18.9707C22.0266 19.6122 22.0266 20.2269 21.8921 20.8416Z" fill="white"/>
<path d="M30.5998 10.2H22.0319C21.5729 10.2 21.0833 10.02 20.7467 9.66C20.3795 9.33 20.1959 8.85 20.1959 8.4V0L30.5998 10.2Z" fill="white" fill-opacity="0.5"/>
<defs>
<linearGradient id="paint0_linear_2_10795" x1="15.288" y1="-2.19766" x2="15.288" y2="16.7406" gradientUnits="userSpaceOnUse">
<stop stop-color="#4DA1FF"/>
<stop offset="1" stop-color="#0072EE"/>
</linearGradient>
<linearGradient id="paint1_linear_2_10795" x1="17.5722" y1="31.4423" x2="17.3473" y2="22.1048" gradientUnits="userSpaceOnUse">
<stop stop-color="white" stop-opacity="0"/>
<stop offset="1" stop-color="#1A86FF" stop-opacity="0.4"/>
</linearGradient>
<linearGradient id="paint2_linear_2_10795" x1="11.3067" y1="26.0676" x2="15.0908" y2="22.879" gradientUnits="userSpaceOnUse">
<stop stop-color="white"/>
<stop offset="1" stop-color="#B2D6FF"/>
</linearGradient>
<linearGradient id="paint3_linear_2_10795" x1="9.5141" y1="26.0972" x2="15.0085" y2="23.1134" gradientUnits="userSpaceOnUse">
<stop stop-color="white"/>
<stop offset="1" stop-color="#B2D6FF"/>
</linearGradient>
<linearGradient id="paint4_linear_2_10795" x1="14.1791" y1="22.6824" x2="14.7573" y2="18.5673" gradientUnits="userSpaceOnUse">
<stop stop-color="white" stop-opacity="0"/>
<stop offset="1" stop-color="#4DA1FF" stop-opacity="0.4"/>
</linearGradient>
<linearGradient id="paint5_linear_2_10795" x1="15.4675" y1="23.5966" x2="12.9746" y2="19.8564" gradientUnits="userSpaceOnUse">
<stop stop-color="white" stop-opacity="0"/>
<stop offset="1" stop-color="#4DA1FF" stop-opacity="0.4"/>
</linearGradient>
<linearGradient id="paint6_linear_2_10795" x1="13.6763" y1="24.194" x2="11.8686" y2="23.2366" gradientUnits="userSpaceOnUse">
<stop stop-color="white" stop-opacity="0"/>
<stop offset="1" stop-color="#4DA1FF" stop-opacity="0.3"/>
</linearGradient>
<linearGradient id="paint7_linear_2_10795" x1="19.9713" y1="21.2015" x2="19.4572" y2="19.0677" gradientUnits="userSpaceOnUse">
<stop stop-color="white" stop-opacity="0"/>
<stop offset="1" stop-color="#4DA1FF" stop-opacity="0.4"/>
</linearGradient>
</defs>
</svg>
