<svg width="32" height="36" viewBox="0 0 32 36" fill="none" xmlns="http://www.w3.org/2000/svg">
<path d="M2.73589 0C2.2769 0 1.7873 0.18 1.4507 0.54C1.1141 0.9 0.899902 1.35 0.899902 1.8V34.2C0.899902 34.65 1.0835 35.13 1.4507 35.46C1.8179 35.82 2.2769 36 2.73589 36H29.6638C30.1228 36 30.6124 35.82 30.949 35.46C31.3162 35.1 31.4998 34.65 31.4998 34.2V10.2L21.0958 0H2.73589Z" fill="url(#paint0_linear_2_10791)"/>
<path d="M2.73589 0C2.2769 0 1.7873 0.18 1.4507 0.54C1.1141 0.9 0.899902 1.35 0.899902 1.8V34.2C0.899902 34.65 1.0835 35.13 1.4507 35.46C1.8179 35.82 2.2769 36 2.73589 36H29.6638C30.1228 36 30.6124 35.82 30.949 35.46C31.3162 35.1 31.4998 34.65 31.4998 34.2V10.2L21.0958 0H2.73589Z" fill="url(#paint1_radial_2_10791)" fill-opacity="0.8" style="mix-blend-mode:screen"/>
<path d="M31.4997 10.2H22.9318C22.4728 10.2 21.9832 10.02 21.6466 9.66C21.2794 9.33 21.0958 8.85 21.0958 8.4V0L31.4997 10.2Z" fill="white" fill-opacity="0.5"/>
<path d="M13.4799 28.6768C14.9188 28.6768 16.0866 27.5192 16.0866 26.0928V23.5089H13.4799C12.041 23.5089 10.8732 24.6665 10.8732 26.0928C10.8732 27.5192 12.041 28.6768 13.4799 28.6768Z" fill="#0ACF83"/>
<path d="M10.8732 20.9251C10.8732 19.4987 12.041 18.3411 13.4799 18.3411H16.0866V23.509H13.4799C12.041 23.509 10.8732 22.3514 10.8732 20.9251Z" fill="#A259FF"/>
<path d="M10.8733 15.7571C10.8733 14.3308 12.0411 13.1732 13.48 13.1732H16.0867V18.3411H13.48C12.0411 18.3411 10.8733 17.1835 10.8733 15.7571Z" fill="#F24E1E"/>
<path d="M16.0867 13.1732H18.6933C20.1322 13.1732 21.3 14.3308 21.3 15.7571C21.3 17.1835 20.1322 18.3411 18.6933 18.3411H16.0867V13.1732Z" fill="#FF7262"/>
<path d="M21.3 20.9251C21.3 22.3514 20.1322 23.509 18.6933 23.509C17.2545 23.509 16.0867 22.3514 16.0867 20.9251C16.0867 19.4987 17.2545 18.3411 18.6933 18.3411C20.1322 18.3411 21.3 19.4987 21.3 20.9251Z" fill="#1ABCFE"/>
<defs>
<linearGradient id="paint0_linear_2_10791" x1="16.1998" y1="0" x2="16.1998" y2="36" gradientUnits="userSpaceOnUse">
<stop stop-color="#2B2B2B"/>
<stop offset="1" stop-color="#171616"/>
</linearGradient>
<radialGradient id="paint1_radial_2_10791" cx="0" cy="0" r="1" gradientUnits="userSpaceOnUse" gradientTransform="translate(16.1998) rotate(90) scale(16.299 18.0398)">
<stop stop-color="#292929"/>
<stop offset="1" stop-color="#2B2B2B" stop-opacity="0"/>
</radialGradient>
</defs>
</svg>
