<svg width="31" height="36" viewBox="0 0 31 36" fill="none" xmlns="http://www.w3.org/2000/svg">
<path d="M2.13568 0C1.67668 0 1.18708 0.18 0.850483 0.54C0.513883 0.9 0.299683 1.35 0.299683 1.8V34.2C0.299683 34.65 0.483283 35.13 0.850483 35.46C1.21768 35.82 1.67668 36 2.13568 36H29.0637C29.5227 36 30.0123 35.82 30.3489 35.46C30.7161 35.1 30.8997 34.65 30.8997 34.2V10.2L20.4957 0H2.13568Z" fill="#75A3F8"/>
<path d="M12.4458 25.2414V15.4773C10.4475 15.4773 9.21453 16.8632 8.76811 19.6247L7.94968 19.3538L8.28981 14.5499H19.3334L19.6097 19.3017L18.8551 19.6351C18.2173 16.9153 16.9418 15.5398 15.0392 15.4877V25.3144C14.9011 26.5648 15.4963 27.1901 16.8143 27.1901V27.857H10.6707V27.1901C11.9887 27.2734 12.5839 26.6274 12.4458 25.2414Z" fill="white"/>
<path opacity="0.6" d="M19.1418 26.2625V20.3019C17.9195 20.3019 17.1755 21.146 16.8885 22.8341L16.3889 22.6674L16.6015 19.7288H23.3509L23.521 22.6257L23.064 22.8341C22.6707 21.1773 21.8948 20.3332 20.7362 20.3019V26.3042C20.6512 27.0649 21.0125 27.4505 21.8204 27.4505V27.8569H18.0577V27.4505C18.8655 27.4922 19.2269 27.1066 19.1418 26.2625Z" fill="white"/>
<path d="M30.8996 10.2H22.3316C21.8726 10.2 21.383 10.02 21.0464 9.66C20.6792 9.33 20.4956 8.85 20.4956 8.4V0L30.8996 10.2Z" fill="#AAC6FA"/>
</svg>
