<svg width="31" height="36" viewBox="0 0 31 36" fill="none" xmlns="http://www.w3.org/2000/svg">
<path d="M2.03595 0C1.57695 0 1.08735 0.18 0.750751 0.54C0.414151 0.9 0.199951 1.35 0.199951 1.8V34.2C0.199951 34.65 0.383551 35.13 0.750751 35.46C1.11795 35.82 1.57695 36 2.03595 36H28.964C29.423 36 29.9125 35.82 30.2491 35.46C30.6164 35.1 30.7999 34.65 30.7999 34.2V10.2L20.396 0H2.03595Z" fill="#59D4B7"/>
<path fill-rule="evenodd" clip-rule="evenodd" d="M22.1733 15.36H8.7778C8.36679 15.36 8.03363 15.6867 8.03363 16.0897V27.7629C8.03363 28.1657 8.36679 28.492 8.7778 28.492H22.1733C22.5843 28.492 22.9175 28.1657 22.9175 27.7629V16.0897C22.9175 15.6867 22.5843 15.36 22.1733 15.36ZM20.6845 26.3032H10.2659V22.6556L12.4984 20.4667L16.2194 24.1147L18.4519 21.9256L20.6845 24.1147V26.3032ZM17.7075 19.0078C17.7075 19.8136 18.3737 20.4668 19.1958 20.4668C20.0178 20.4668 20.6841 19.8136 20.6841 19.0078C20.6841 18.2016 20.0178 17.5487 19.1958 17.5487C18.3738 17.5487 17.7075 18.2016 17.7075 19.0078Z" fill="white"/>
<path d="M30.7998 10.2H22.2318C21.7728 10.2 21.2832 10.02 20.9466 9.66C20.5794 9.33 20.3958 8.85 20.3958 8.4V0L30.7998 10.2Z" fill="#8AECD5"/>
</svg>
