<svg width="32" height="36" viewBox="0 0 32 36" fill="none" xmlns="http://www.w3.org/2000/svg">
<path d="M2.33563 0C1.87663 0 1.38703 0.18 1.05043 0.54C0.713834 0.9 0.499634 1.35 0.499634 1.8V34.2C0.499634 34.65 0.683234 35.13 1.05043 35.46C1.41763 35.82 1.87663 36 2.33563 36H29.2636C29.7226 36 30.2122 35.82 30.5488 35.46C30.916 35.1 31.0996 34.65 31.0996 34.2V10.2L20.6956 0H2.33563Z" fill="#E55D5D"/>
<path d="M31.0995 10.2H22.5315C22.0725 10.2 21.5829 10.02 21.2463 9.66C20.8791 9.33 20.6955 8.85 20.6955 8.4V0L31.0995 10.2Z" fill="white" fill-opacity="0.5"/>
<path fill-rule="evenodd" clip-rule="evenodd" d="M18.0611 13.2839L22.5205 21.4468C22.6692 21.7226 22.6692 22.0535 22.5205 22.3293L19.6962 27.5C19.5264 27.8034 19.2008 27.9964 18.8398 27.9964H12.5329C12.1719 27.9964 11.8463 27.8034 11.6764 27.5L8.85209 22.3293C8.70344 22.0535 8.70344 21.7226 8.85209 21.4468L13.3115 13.2839C13.4814 12.9806 13.8707 12.8634 14.1821 13.0288C14.2954 13.084 14.3874 13.1736 14.4441 13.2839L15.6828 15.5522L16.9286 13.2839C17.0914 12.9806 17.4807 12.8634 17.7921 13.0288C17.9054 13.084 17.9974 13.1736 18.0611 13.2839ZM17.4974 18.8715L16.5843 20.5399L16.9594 21.2225C17.0727 21.4293 17.1293 21.6568 17.1293 21.8843H17.1364V21.9119C17.1222 22.6841 16.4781 23.2977 15.6853 23.2977C14.8854 23.2977 14.2413 22.6703 14.2413 21.8912V21.8843C14.2413 21.7947 14.2484 21.7051 14.2696 21.6086V21.5879C14.305 21.4431 14.3545 21.3121 14.4253 21.1949V21.188L15.6853 18.8853V18.8922L16.5984 17.2238L17.2072 16.1C17.2426 16.0449 17.285 16.0035 17.3417 15.969C17.4974 15.8932 17.6956 15.9483 17.7735 16.1L20.8172 21.6637C20.8951 21.8016 20.8951 21.9671 20.8172 22.105L18.5875 26.1795C18.5025 26.3312 18.3397 26.4277 18.1628 26.4277H13.2078C13.0309 26.4277 12.8681 26.3312 12.7831 26.1795L10.5534 22.105C10.4756 21.9671 10.4756 21.8016 10.5534 21.6637L13.5972 16.1C13.6255 16.0449 13.6679 16.0035 13.7246 15.969C13.8874 15.8932 14.0785 15.9483 14.1634 16.1L14.7722 17.2238L12.9884 20.4848C12.9035 20.6434 12.8327 20.8019 12.7831 20.9674L12.7761 20.9881L12.7477 21.0639C12.6699 21.3259 12.6274 21.6017 12.6274 21.8912C12.6274 23.5321 14.0006 24.8696 15.6853 24.8696C17.3771 24.8696 18.7432 23.5321 18.7432 21.8912C18.7432 21.3535 18.6016 20.8502 18.3468 20.4227L17.4974 18.8715Z" fill="white"/>
</svg>
