<svg width="31" height="36" viewBox="0 0 31 36" fill="none" xmlns="http://www.w3.org/2000/svg">
<path d="M1.836 0C1.377 0 0.8874 0.18 0.5508 0.54C0.2142 0.9 0 1.35 0 1.8V34.2C0 34.65 0.1836 35.13 0.5508 35.46C0.918 35.82 1.377 36 1.836 36H28.764C29.223 36 29.7126 35.82 30.0492 35.46C30.4164 35.1 30.6 34.65 30.6 34.2V10.2L20.196 0H1.836Z" fill="#8183F1"/>
<path d="M30.5999 10.2H22.0319C21.5729 10.2 21.0833 10.02 20.7467 9.66C20.3795 9.33 20.1959 8.85 20.1959 8.4V0L30.5999 10.2Z" fill="#AFB0FF"/>
<path d="M20.7468 12.6541L13.6231 14.5981C12.7602 14.8141 12.0625 15.6241 12.0625 16.3981V23.0941C12.0625 23.0941 11.5484 22.7881 10.3918 22.9321C8.70263 23.1481 7.34399 24.3001 7.34399 25.5061C7.34399 26.7121 8.72099 27.4681 10.3918 27.2521C12.0809 27.0361 13.311 25.9201 13.311 24.7141V18.9901C13.311 18.4501 14.027 18.2161 14.027 18.2161L20.3245 16.4521C20.3245 16.4521 21.0222 16.2361 21.0222 16.8121V21.4201C21.0222 21.4201 20.3796 21.0961 19.2229 21.2221C17.5338 21.4021 16.1568 22.5361 16.1568 23.7421C16.1568 24.9481 17.5338 25.7221 19.2229 25.5421C20.912 25.3621 22.289 24.2281 22.289 23.0221V13.6621C22.3074 12.8881 21.6097 12.4381 20.7468 12.6541Z" fill="white"/>
</svg>
