<svg width="32" height="36" viewBox="0 0 32 36" fill="none" xmlns="http://www.w3.org/2000/svg">
<path d="M2.5357 0C2.0767 0 1.5871 0.18 1.2505 0.54C0.913906 0.9 0.699707 1.35 0.699707 1.8V34.2C0.699707 34.65 0.883306 35.13 1.2505 35.46C1.6177 35.82 2.0767 36 2.5357 36H29.4636C29.9226 36 30.4122 35.82 30.7488 35.46C31.116 35.1 31.2996 34.65 31.2996 34.2V10.2L20.8956 0H2.5357Z" fill="#C5CEE0"/>
<path d="M7.74992 18.4321H10.8833V21.5041H7.74992V18.4321Z" fill="white"/>
<path opacity="0.7" d="M14.2776 18.4321H17.4111V21.5041H14.2776V18.4321Z" fill="white"/>
<path opacity="0.45" d="M20.8059 18.4321H23.9394V21.5041H20.8059V18.4321Z" fill="white"/>
<path d="M31.2995 10.2H22.7316C22.2726 10.2 21.783 10.02 21.4464 9.66C21.0792 9.33 20.8956 8.85 20.8956 8.4V0L31.2995 10.2Z" fill="white" fill-opacity="0.5"/>
</svg>
