<svg width="32" height="36" viewBox="0 0 32 36" fill="none" xmlns="http://www.w3.org/2000/svg">
<path d="M2.53582 0C2.07682 0 1.58723 0.18 1.25063 0.54C0.914028 0.9 0.699829 1.35 0.699829 1.8V34.2C0.699829 34.65 0.883428 35.13 1.25063 35.46C1.61783 35.82 2.07682 36 2.53582 36H29.4637C29.9227 36 30.4123 35.82 30.7489 35.46C31.1161 35.1 31.2997 34.65 31.2997 34.2V10.2L20.8957 0H2.53582Z" fill="#9AD8CF"/>
<path fill-rule="evenodd" clip-rule="evenodd" d="M6.18329 14.5918H21.8504V16.8958H6.18329V14.5918ZM6.18329 19.1998H21.8504V21.5038H6.18329V19.1998ZM15.5836 23.8078H6.18329V26.1118H15.5836V23.8078Z" fill="white"/>
<path d="M31.2996 10.2H22.7317C22.2727 10.2 21.7831 10.02 21.4465 9.66C21.0793 9.33 20.8957 8.85 20.8957 8.4V0L31.2996 10.2Z" fill="#C2E8E2"/>
</svg>
