<svg width="31" height="36" viewBox="0 0 31 36" fill="none" xmlns="http://www.w3.org/2000/svg">
<path d="M1.93572 0C1.47673 0 0.987128 0.18 0.650529 0.54C0.313931 0.9 0.0997314 1.35 0.0997314 1.8V34.2C0.0997314 34.65 0.283331 35.13 0.650529 35.46C1.01773 35.82 1.47673 36 1.93572 36H28.8636C29.3226 36 29.8122 35.82 30.1488 35.46C30.516 35.1 30.6996 34.65 30.6996 34.2V10.2L20.2956 0H1.93572Z" fill="#FF5562"/>
<path d="M21.4009 28.2102C19.919 28.2102 18.6017 25.7196 17.896 24.1052C16.7199 23.6209 15.4261 23.1828 14.1794 22.883C13.0739 23.5979 11.2156 24.6587 9.78068 24.6587C8.88682 24.6587 8.25171 24.2205 8.01648 23.4595C7.8283 22.8369 7.99296 22.3987 8.18114 22.1681C8.5575 21.6607 9.33375 21.407 10.5099 21.407C11.4508 21.407 12.6505 21.5685 13.9912 21.8913C14.8616 21.2917 15.7319 20.5999 16.5082 19.8619C16.1553 18.2476 15.779 15.6416 16.7434 14.4424C17.2139 13.8659 17.9431 13.6814 18.8134 13.9351C19.7778 14.2118 20.1307 14.7884 20.2483 15.2265C20.6482 16.7947 18.8134 18.9164 17.5667 20.1617C17.849 21.2456 18.2018 22.3756 18.6487 23.4134C20.4365 24.1975 22.5535 25.3506 22.7887 26.619C22.8828 27.0571 22.7417 27.4722 22.3888 27.8182C22.0831 28.0718 21.7537 28.2102 21.4009 28.2102ZM19.2133 24.7048C20.1071 26.4806 20.954 27.3108 21.4009 27.3108C21.4715 27.3108 21.5656 27.2877 21.7067 27.1724C21.8714 27.011 21.8714 26.8957 21.8478 26.8034C21.7537 26.3422 21.001 25.5812 19.2133 24.7048ZM10.5099 22.3295C9.35727 22.3295 9.02796 22.6062 8.93386 22.7215C8.91034 22.7677 8.81625 22.883 8.91034 23.2058C8.98091 23.4826 9.16909 23.7593 9.78068 23.7593C10.5334 23.7593 11.6155 23.3442 12.8857 22.6062C11.9683 22.4217 11.1685 22.3295 10.5099 22.3295ZM15.1674 22.1911C15.9201 22.3987 16.6964 22.6524 17.4256 22.9291C17.1668 22.2603 16.9551 21.5685 16.7669 20.8997C16.2494 21.3379 15.7084 21.776 15.1674 22.1911ZM18.0842 14.7422C17.8254 14.7422 17.6373 14.8345 17.4726 15.019C16.9786 15.6186 16.9316 17.1406 17.3079 19.0778C18.7428 17.5788 19.5191 16.1951 19.3309 15.4571C19.3074 15.3418 19.2133 15.019 18.5546 14.8345C18.3665 14.7653 18.2253 14.7422 18.0842 14.7422Z" fill="white"/>
<path d="M30.6996 10.2H22.1316C21.6726 10.2 21.183 10.02 20.8464 9.66C20.4792 9.33 20.2956 8.85 20.2956 8.4V0L30.6996 10.2Z" fill="#FFBBC0"/>
</svg>
