<svg width="31" height="36" viewBox="0 0 31 36" fill="none" xmlns="http://www.w3.org/2000/svg">
<path d="M2.03571 0C1.57671 0 1.08711 0.18 0.750507 0.54C0.413907 0.9 0.199707 1.35 0.199707 1.8V34.2C0.199707 34.65 0.383307 35.13 0.750507 35.46C1.11771 35.82 1.57671 36 2.03571 36H28.9637C29.4227 36 29.9123 35.82 30.2489 35.46C30.6161 35.1 30.7997 34.65 30.7997 34.2V10.2L20.3957 0H2.03571Z" fill="#FC7440"/>
<path opacity="0.4" d="M15.3578 15.5921C11.7444 15.5921 8.81696 18.4637 8.81696 22.0047C8.81696 25.5456 11.746 28.4172 15.3578 28.4172C18.9696 28.4172 21.9001 25.5456 21.9001 22.0031H15.3578V15.5921Z" fill="white"/>
<path d="M16.3767 14.5918V21.0059H22.9175C22.9191 17.4634 19.9901 14.5918 16.3767 14.5918H16.3767Z" fill="white"/>
<path d="M30.7996 10.2H22.2316C21.7726 10.2 21.283 10.02 20.9464 9.66C20.5792 9.33 20.3956 8.85 20.3956 8.4V0L30.7996 10.2Z" fill="#FBBEA6"/>
</svg>
