<svg width="32" height="36" viewBox="0 0 32 36" fill="none" xmlns="http://www.w3.org/2000/svg">
<path d="M2.73577 0C2.27677 0 1.78718 0.18 1.45058 0.54C1.11398 0.9 0.89978 1.35 0.89978 1.8V34.2C0.89978 34.65 1.08338 35.13 1.45058 35.46C1.81778 35.82 2.27677 36 2.73577 36H29.6637C30.1227 36 30.6122 35.82 30.9488 35.46C31.316 35.1 31.4996 34.65 31.4996 34.2V10.2L21.0957 0H2.73577Z" fill="#4179EC"/>
<path d="M31.4996 10.2H22.9316C22.4726 10.2 21.983 10.02 21.6464 9.66C21.2792 9.33 21.0956 8.85 21.0956 8.4V0L31.4996 10.2Z" fill="#6897F9"/>
<path d="M8.31854 17.5549H10.7093C11.5721 17.5549 12.2557 17.7305 12.7602 18.0818C13.272 18.4258 13.5279 18.9921 13.5279 19.7806C13.5279 20.5547 13.2683 21.1389 12.7492 21.5331C12.2301 21.9274 11.5648 22.1245 10.7532 22.1245H9.82102V24.576H8.31854V17.5549ZM10.6545 20.9525C11.5904 20.9525 12.0583 20.5619 12.0583 19.7806C12.0583 19.4078 11.9376 19.139 11.6964 18.9742C11.4624 18.8093 11.1005 18.7269 10.6106 18.7269H9.82102V20.9525H10.6545Z" fill="white"/>
<path d="M16.1386 24.705C15.7877 24.705 15.4221 24.6369 15.0419 24.5007C14.669 24.3645 14.3437 24.1853 14.0658 23.9631L14.7458 23.0384C15.0017 23.232 15.243 23.3753 15.4696 23.4685C15.7036 23.5617 15.9412 23.6083 16.1825 23.6083C16.4311 23.6083 16.6175 23.5653 16.7418 23.4793C16.8661 23.3861 16.9282 23.2571 16.9282 23.0922C16.9282 22.9775 16.8771 22.8771 16.7747 22.7911C16.6796 22.7051 16.5407 22.6263 16.3579 22.5546C16.1752 22.4757 15.9924 22.4005 15.8096 22.3288C15.3782 22.1639 15.0236 21.9632 14.7458 21.7267C14.4753 21.483 14.34 21.164 14.34 20.7698C14.34 20.2823 14.5265 19.8881 14.8993 19.587C15.2722 19.2788 15.7657 19.1247 16.3799 19.1247C17.0525 19.1247 17.6776 19.3469 18.2552 19.7913L17.5862 20.673C17.1549 20.3719 16.7674 20.2214 16.4237 20.2214C16.1971 20.2214 16.0253 20.2644 15.9083 20.3504C15.7986 20.4364 15.7438 20.5511 15.7438 20.6945C15.7438 20.8378 15.8169 20.9561 15.9631 21.0493C16.1094 21.1353 16.2775 21.2106 16.4676 21.2751C16.6577 21.3396 16.782 21.3826 16.8405 21.4041C17.3011 21.569 17.663 21.7697 17.9262 22.0062C18.1967 22.2356 18.332 22.5689 18.332 23.0062C18.332 23.3287 18.2443 23.619 18.0688 23.8771C17.9006 24.128 17.6521 24.3287 17.323 24.4792C16.994 24.6297 16.5992 24.705 16.1386 24.705Z" fill="white"/>
<path d="M21.309 24.705C20.6291 24.705 20.088 24.4577 19.6859 23.9631C19.2911 23.4685 19.0937 22.7875 19.0937 21.9202C19.0937 21.3611 19.1997 20.8701 19.4117 20.4472C19.6238 20.0243 19.9016 19.6981 20.2452 19.4688C20.5962 19.2394 20.9654 19.1247 21.3529 19.1247C21.638 19.1247 21.883 19.1713 22.0877 19.2645C22.2924 19.3577 22.5008 19.501 22.7128 19.6946L22.658 18.8666V17.0173H24.1604V24.576H22.9321L22.8225 24.0276H22.7896C22.5849 24.2283 22.3509 24.3932 22.0877 24.5222C21.8318 24.6441 21.5722 24.705 21.309 24.705ZM21.6929 23.5008C21.883 23.5008 22.0548 23.4613 22.2083 23.3825C22.3619 23.2965 22.5117 23.1639 22.658 22.9847V20.7052C22.3801 20.4544 22.0584 20.3289 21.6929 20.3289C21.3931 20.3289 21.1409 20.4651 20.9362 20.7375C20.7314 21.0099 20.6291 21.397 20.6291 21.8987C20.6291 22.4291 20.7205 22.8306 20.9032 23.1029C21.086 23.3682 21.3492 23.5008 21.6929 23.5008Z" fill="white"/>
</svg>
