<svg width="31" height="36" viewBox="0 0 31 36" fill="none" xmlns="http://www.w3.org/2000/svg">
<path d="M2.23566 0C1.77666 0 1.28706 0.18 0.950458 0.54C0.613858 0.9 0.399658 1.35 0.399658 1.8V34.2C0.399658 34.65 0.583258 35.13 0.950458 35.46C1.31766 35.82 1.77666 36 2.23566 36H29.1637C29.6227 36 30.1123 35.82 30.4489 35.46C30.8161 35.1 30.9997 34.65 30.9997 34.2V10.2L20.5957 0H2.23566Z" fill="#FED305"/>
<path d="M30.9995 10.2H22.4316C21.9726 10.2 21.483 10.02 21.1464 9.66C20.7792 9.33 20.5956 8.85 20.5956 8.4V0L30.9995 10.2Z" fill="white" fill-opacity="0.5"/>
<path d="M25.333 19.2506L15.7649 30.1555L6.19672 19.2506" fill="#FFAE00"/>
<path d="M21.1709 13.7396L25.333 19.243H21.4579L15.7649 30.1556L10.0718 19.243H6.19672L10.3589 13.7396" fill="white" fill-opacity="0.5"/>
<path d="M15.7649 13.1533L21.149 13.7205L21.4349 19.2506H10.0949L10.3808 13.7205" fill="white" fill-opacity="0.4"/>
<path d="M15.7649 13.1533L21.4349 19.2506H10.0949" fill="white"/>
</svg>
