<svg width="31" height="36" viewBox="0 0 31 36" fill="none" xmlns="http://www.w3.org/2000/svg">
<path d="M1.93597 0C1.47697 0 0.987372 0.18 0.650773 0.54C0.314175 0.9 0.0999756 1.35 0.0999756 1.8V34.2C0.0999756 34.65 0.283575 35.13 0.650773 35.46C1.01797 35.82 1.47697 36 1.93597 36H28.8638C29.3228 36 29.8124 35.82 30.149 35.46C30.5162 35.1 30.6998 34.65 30.6998 34.2V10.2L20.2959 0H1.93597Z" fill="#A2C6D5"/>
<path d="M7.15015 18.4321H10.2836V21.5041H7.15015V18.4321Z" fill="white"/>
<path opacity="0.7" d="M13.6779 18.4321H16.8113V21.5041H13.6779V18.4321Z" fill="white"/>
<path opacity="0.45" d="M20.2062 18.4321H23.3396V21.5041H20.2062V18.4321Z" fill="white"/>
<path d="M30.6999 10.2H22.1319C21.6729 10.2 21.1833 10.02 20.8467 9.66C20.4795 9.33 20.2959 8.85 20.2959 8.4V0L30.6999 10.2Z" fill="#CEE4ED"/>
</svg>
