<svg width="31" height="36" viewBox="0 0 31 36" fill="none" xmlns="http://www.w3.org/2000/svg">
<path d="M2.23589 0C1.7769 0 1.2873 0.18 0.9507 0.54C0.614101 0.9 0.399902 1.35 0.399902 1.8V34.2C0.399902 34.65 0.583502 35.13 0.9507 35.46C1.3179 35.82 1.7769 36 2.23589 36H29.1638C29.6228 36 30.1124 35.82 30.449 35.46C30.8162 35.1 30.9998 34.65 30.9998 34.2V10.2L20.5958 0H2.23589Z" fill="#5E6C89"/>
<path d="M2.38318 4.19449C2.38318 4.56285 2.53243 4.91612 2.79811 5.17658C3.06378 5.43705 3.42412 5.58338 3.79984 5.58338C4.17556 5.58338 4.53589 5.43705 4.80157 5.17658C5.06725 4.91612 5.2165 4.56285 5.2165 4.19449C5.2165 3.82614 5.06725 3.47287 4.80157 3.2124C4.53589 2.95193 4.17556 2.8056 3.79984 2.8056C3.42412 2.8056 3.06378 2.95193 2.79811 3.2124C2.53243 3.47287 2.38318 3.82614 2.38318 4.19449Z" fill="white"/>
<path d="M2.38318 9.75037C2.38318 10.1187 2.53243 10.472 2.79811 10.7325C3.06378 10.9929 3.42412 11.1393 3.79984 11.1393C4.17556 11.1393 4.53589 10.9929 4.80157 10.7325C5.06725 10.472 5.2165 10.1187 5.2165 9.75037C5.2165 9.38201 5.06725 9.02874 4.80157 8.76828C4.53589 8.50781 4.17556 8.36148 3.79984 8.36148C3.42412 8.36148 3.06378 8.50781 2.79811 8.76828C2.53243 9.02874 2.38318 9.38201 2.38318 9.75037Z" fill="white"/>
<path d="M2.38318 15.3055C2.38318 15.6738 2.53243 16.0271 2.79811 16.2876C3.06378 16.548 3.42412 16.6944 3.79984 16.6944C4.17556 16.6944 4.53589 16.548 4.80157 16.2876C5.06725 16.0271 5.2165 15.6738 5.2165 15.3055C5.2165 14.9371 5.06725 14.5839 4.80157 14.3234C4.53589 14.0629 4.17556 13.9166 3.79984 13.9166C3.42412 13.9166 3.06378 14.0629 2.79811 14.3234C2.53243 14.5839 2.38318 14.9371 2.38318 15.3055Z" fill="white"/>
<path d="M2.38318 20.8614C2.38318 21.2297 2.53243 21.583 2.79811 21.8435C3.06378 22.1039 3.42412 22.2502 3.79984 22.2502C4.17556 22.2502 4.53589 22.1039 4.80157 21.8435C5.06725 21.583 5.2165 21.2297 5.2165 20.8614C5.2165 20.493 5.06725 20.1397 4.80157 19.8793C4.53589 19.6188 4.17556 19.4725 3.79984 19.4725C3.42412 19.4725 3.06378 19.6188 2.79811 19.8793C2.53243 20.1397 2.38318 20.493 2.38318 20.8614Z" fill="white"/>
<path d="M2.38318 26.4166C2.38318 26.785 2.53243 27.1382 2.79811 27.3987C3.06378 27.6592 3.42412 27.8055 3.79984 27.8055C4.17556 27.8055 4.53589 27.6592 4.80157 27.3987C5.06725 27.1382 5.2165 26.785 5.2165 26.4166C5.2165 26.0482 5.06725 25.695 4.80157 25.4345C4.53589 25.174 4.17556 25.0277 3.79984 25.0277C3.42412 25.0277 3.06378 25.174 2.79811 25.4345C2.53243 25.695 2.38318 26.0482 2.38318 26.4166Z" fill="white"/>
<path d="M2.38318 31.9726C2.38318 32.341 2.53243 32.6942 2.79811 32.9547C3.06378 33.2152 3.42412 33.3615 3.79984 33.3615C4.17556 33.3615 4.53589 33.2152 4.80157 32.9547C5.06725 32.6942 5.2165 32.341 5.2165 31.9726C5.2165 31.6042 5.06725 31.251 4.80157 30.9905C4.53589 30.73 4.17556 30.5837 3.79984 30.5837C3.42412 30.5837 3.06378 30.73 2.79811 30.9905C2.53243 31.251 2.38318 31.6042 2.38318 31.9726Z" fill="white"/>
<path d="M26.7499 15.3055C26.7499 15.6738 26.8991 16.0271 27.1648 16.2876C27.4305 16.548 27.7908 16.6944 28.1665 16.6944C28.5423 16.6944 28.9026 16.548 29.1683 16.2876C29.4339 16.0271 29.5832 15.6738 29.5832 15.3055C29.5832 14.9371 29.4339 14.5839 29.1683 14.3234C28.9026 14.0629 28.5423 13.9166 28.1665 13.9166C27.7908 13.9166 27.4305 14.0629 27.1648 14.3234C26.8991 14.5839 26.7499 14.9371 26.7499 15.3055Z" fill="white"/>
<path d="M26.7498 20.8614C26.7498 21.2297 26.8991 21.583 27.1647 21.8435C27.4304 22.1039 27.7908 22.2502 28.1665 22.2502C28.5422 22.2502 28.9025 22.1039 29.1682 21.8435C29.4339 21.583 29.5831 21.2297 29.5831 20.8614C29.5831 20.493 29.4339 20.1397 29.1682 19.8793C28.9025 19.6188 28.5422 19.4725 28.1665 19.4725C27.7908 19.4725 27.4304 19.6188 27.1647 19.8793C26.8991 20.1397 26.7498 20.493 26.7498 20.8614Z" fill="white"/>
<path d="M26.7498 26.4166C26.7498 26.785 26.8991 27.1382 27.1647 27.3987C27.4304 27.6592 27.7908 27.8055 28.1665 27.8055C28.5422 27.8055 28.9025 27.6592 29.1682 27.3987C29.4339 27.1382 29.5831 26.785 29.5831 26.4166C29.5831 26.0482 29.4339 25.695 29.1682 25.4345C28.9025 25.174 28.5422 25.0277 28.1665 25.0277C27.7908 25.0277 27.4304 25.174 27.1647 25.4345C26.8991 25.695 26.7498 26.0482 26.7498 26.4166Z" fill="white"/>
<path d="M26.7498 31.9726C26.7498 32.341 26.8991 32.6942 27.1647 32.9547C27.4304 33.2152 27.7908 33.3615 28.1665 33.3615C28.5422 33.3615 28.9025 33.2152 29.1682 32.9547C29.4339 32.6942 29.5831 32.341 29.5831 31.9726C29.5831 31.6042 29.4339 31.251 29.1682 30.9905C28.9025 30.73 28.5422 30.5837 28.1665 30.5837C27.7908 30.5837 27.4304 30.73 27.1647 30.9905C26.8991 31.251 26.7498 31.6042 26.7498 31.9726Z" fill="white"/>
<path d="M20.1482 19.7791L12.6399 14.7235C12.4699 14.6124 12.2432 14.5846 12.0449 14.6957C11.8465 14.8068 11.7332 15.0013 11.7332 15.1957V25.2791C11.7332 25.4735 11.8465 25.668 12.0449 25.7791C12.2432 25.8902 12.4699 25.8624 12.6399 25.7513L20.1482 20.668C20.3182 20.5846 20.4032 20.3902 20.4032 20.2235C20.4032 20.0568 20.2898 19.8902 20.1482 19.7791Z" fill="white"/>
<path d="M30.9997 10.2H22.4318C21.9728 10.2 21.4832 10.02 21.1466 9.66C20.7794 9.33 20.5958 8.85 20.5958 8.4V0L30.9997 10.2Z" fill="#99A7C4"/>
</svg>
