<svg width="32" height="36" viewBox="0 0 32 36" fill="none" xmlns="http://www.w3.org/2000/svg">
<path d="M2.43561 0C1.97661 0 1.48701 0.18 1.15041 0.54C0.813809 0.9 0.599609 1.35 0.599609 1.8V34.2C0.599609 34.65 0.783209 35.13 1.15041 35.46C1.51761 35.82 1.97661 36 2.43561 36H29.3636C29.8226 36 30.3122 35.82 30.6488 35.46C31.016 35.1 31.1996 34.65 31.1996 34.2V10.2L20.7956 0H2.43561Z" fill="#3E032F"/>
<path d="M31.1995 10.2H22.6315C22.1725 10.2 21.6829 10.02 21.3463 9.66C20.9791 9.33 20.7955 8.85 20.7955 8.4V0L31.1995 10.2Z" fill="white" fill-opacity="0.5"/>
<path d="M9.51312 17.8298L12.0071 21.5222L14.4869 17.8298H16.5863L13.0216 22.8649L16.4736 27.7602H14.3742L12.0071 24.2076L9.6259 27.7602H7.51239L10.9645 22.8649L7.39961 17.8298H9.51312Z" fill="#FD5BF0"/>
<path d="M20.0385 27.9C17.8709 27.9 16.53 26.1065 16.53 24.0957C16.53 21.8159 18.0763 20.3053 19.8271 20.3053C21.3102 20.3053 22.0766 21.2984 22.321 21.718V17.55H24.209V25.6062C24.209 25.802 24.486 26.1565 24.6458 26.1657V27.7601C24.3169 27.8253 24.0492 27.858 23.8426 27.858C22.4794 27.858 22.6028 26.4874 22.6028 26.4874C22.3303 26.9537 21.5181 27.9 20.0385 27.9ZM20.5317 26.3055C21.7163 26.3055 22.2552 25.2519 22.321 25.0747V23.3264C22.2458 23.1214 21.5695 21.8998 20.4189 21.8998C19.1332 21.8998 18.4886 23.166 18.4886 24.1376C18.4886 25.2057 19.2799 26.3055 20.5317 26.3055Z" fill="#FD5BF0"/>
<path d="M15.944 17.8298V18.7371L16.5863 17.8298H15.944Z" fill="#FD5BF0"/>
<path d="M15.944 27.7599H16.4736L15.944 27.0088V27.7599Z" fill="#FD5BF0"/>
</svg>
