<svg width="31" height="36" viewBox="0 0 31 36" fill="none" xmlns="http://www.w3.org/2000/svg">
<path d="M2.13593 0C1.67693 0 1.18733 0.18 0.850727 0.54C0.514127 0.9 0.299927 1.35 0.299927 1.8V34.2C0.299927 34.65 0.483527 35.13 0.850727 35.46C1.21793 35.82 1.67693 36 2.13593 36H29.0639C29.5229 36 30.0125 35.82 30.3491 35.46C30.7163 35.1 30.8999 34.65 30.8999 34.2V10.2L20.4959 0H2.13593Z" fill="#74DCB0"/>
<path d="M14.1679 20.3248L10.0063 14.6248H12.8827L15.6061 18.7048L18.4519 14.6248H21.2365L16.9831 20.3248L21.4507 26.3848H18.5437L15.5449 22.0648L12.5461 26.4148H9.70032L14.1679 20.3248Z" fill="white"/>
<path d="M30.8998 10.2H22.3318C21.8728 10.2 21.3832 10.02 21.0466 9.66C20.6794 9.33 20.4958 8.85 20.4958 8.4V0L30.8998 10.2Z" fill="#B1F1D6"/>
</svg>
