<svg width="31" height="36" viewBox="0 0 31 36" fill="none" xmlns="http://www.w3.org/2000/svg">
<path d="M1.83576 0C1.37676 0 0.887156 0.18 0.550556 0.54C0.213956 0.9 -0.000244141 1.35 -0.000244141 1.8V34.2C-0.000244141 34.65 0.183356 35.13 0.550556 35.46C0.917756 35.82 1.37676 36 1.83576 36H28.7638C29.2228 36 29.7124 35.82 30.049 35.46C30.4162 35.1 30.5998 34.65 30.5998 34.2V10.2L20.1958 0H1.83576Z" fill="#C3CCD6"/>
<path fill-rule="evenodd" clip-rule="evenodd" d="M18.7414 14.0012H20.1728C21.0419 14.0012 21.7064 14.6527 21.6553 15.5047V26.0295C21.6553 26.5307 21.4508 26.9317 21.0419 27.2324C20.9907 27.2825 20.9396 27.2825 20.8885 27.2825C20.8629 27.2825 20.8502 27.27 20.8374 27.2574C20.8246 27.2449 20.8118 27.2324 20.7863 27.2324C20.684 27.2324 20.6329 27.1321 20.6329 27.0319V24.7766C20.6329 23.9747 20.1217 23.2229 19.3038 22.9222L19.0482 22.7719C19.0482 22.7719 18.997 22.7217 18.9459 22.7217C18.9338 22.7099 18.9189 22.6981 18.9032 22.6856C18.8522 22.6452 18.7926 22.5978 18.7926 22.5213L18.6392 21.5189V15.0036C18.6392 14.8031 18.5881 14.5525 18.4858 14.352C18.4858 14.2518 18.4858 14.1515 18.537 14.1014C18.5881 14.0513 18.6392 14.0012 18.7414 14.0012ZM13.0671 17.2588L13.7317 15.0035H13.8339L14.4985 17.2588C14.5496 17.4593 14.4985 17.7099 14.3451 17.8603C14.1406 18.0607 13.3738 18.0607 13.1693 17.8603C13.016 17.7099 12.9649 17.4593 13.0671 17.2588Z" fill="white"/>
<path d="M13.272 14.7028C13.3231 14.5525 13.4254 14.5024 13.5276 14.5024H14.0388C14.141 14.5024 14.2433 14.5525 14.2944 14.7028L14.6011 15.8555L15.0101 15.0035L14.3966 13.6002V13.5H13.0164V13.6002L12.5052 15.0035L12.9142 15.9558L13.272 14.7028Z" fill="white"/>
<path fill-rule="evenodd" clip-rule="evenodd" d="M18.7921 23.2229L19.1499 23.3733C19.7634 23.5737 20.1723 24.125 20.1723 24.7766V27.0319C20.1723 27.8839 19.5078 28.5354 18.6387 28.5354H9.94823C9.07918 28.5354 8.41461 27.8839 8.41461 27.0319V15.0035C8.41461 14.1515 9.07918 13.5 9.94823 13.5H12.5042L11.993 14.9033V15.1038L12.5042 16.3567C12.5554 16.457 12.6576 16.5071 12.7599 16.5071L12.5554 17.1085C12.402 17.4593 12.5042 17.9104 12.811 18.2111C13.0155 18.4116 13.3733 18.5118 13.7823 18.5118C14.1912 18.5118 14.5491 18.4116 14.7535 18.2111C15.0603 17.9104 15.1625 17.4593 15.0092 17.1085L14.8047 16.457C14.8558 16.457 14.9069 16.4068 14.9069 16.3567L15.5715 15.1038C15.6226 15.0537 15.6226 14.9534 15.5715 14.9033L14.9069 13.5H16.5428C17.4118 13.5 18.0764 14.1515 18.0764 15.0035V22.2707C18.0764 22.7217 18.3831 23.0726 18.7921 23.2229ZM12.7605 26.5307H13.2717C13.4251 26.5307 13.5273 26.4304 13.5273 26.2801C13.5273 26.1297 13.4251 26.0295 13.2717 26.0295H12.7605C12.6071 26.0295 12.5049 26.1297 12.5049 26.2801C12.5049 26.4304 12.6071 26.5307 12.7605 26.5307ZM13.2717 25.5283H12.7605C12.6071 25.5283 12.5049 25.4281 12.5049 25.2777C12.5049 25.1274 12.6071 25.0271 12.7605 25.0271H13.2717C13.4251 25.0271 13.5273 25.1274 13.5273 25.2777C13.5273 25.4281 13.4251 25.5283 13.2717 25.5283ZM12.7605 24.526H13.2717C13.4251 24.526 13.5273 24.4257 13.5273 24.2754C13.5273 24.125 13.4251 24.0248 13.2717 24.0248H12.7605C12.6071 24.0248 12.5049 24.125 12.5049 24.2754C12.5049 24.4257 12.6071 24.526 12.7605 24.526ZM13.2717 23.5236H12.7605C12.6071 23.5236 12.5049 23.4234 12.5049 23.273C12.5049 23.1227 12.6071 23.0225 12.7605 23.0225H13.2717C13.4251 23.0225 13.5273 23.1227 13.5273 23.273C13.5273 23.4234 13.4251 23.5236 13.2717 23.5236ZM12.7605 22.5212H13.2717C13.4251 22.5212 13.5273 22.421 13.5273 22.2706C13.5273 22.1203 13.4251 22.02 13.2717 22.02H12.7605C12.6071 22.02 12.5049 22.1203 12.5049 22.2706C12.5049 22.421 12.6071 22.5212 12.7605 22.5212ZM13.2717 21.5189H12.7605C12.6071 21.5189 12.5049 21.4187 12.5049 21.2684C12.5049 21.118 12.6071 21.0178 12.7605 21.0178H13.2717C13.4251 21.0178 13.5273 21.118 13.5273 21.2684C13.5273 21.4187 13.4251 21.5189 13.2717 21.5189ZM12.7605 20.5165H13.2717C13.4251 20.5165 13.5273 20.4163 13.5273 20.2659C13.5273 20.1156 13.4251 20.0153 13.2717 20.0153H12.7605C12.6071 20.0153 12.5049 20.1156 12.5049 20.2659C12.5049 20.4163 12.6071 20.5165 12.7605 20.5165ZM13.2717 19.5142H12.7605C12.6071 19.5142 12.5049 19.4139 12.5049 19.2636C12.5049 19.1132 12.6071 19.013 12.7605 19.013H13.2717C13.4251 19.013 13.5273 19.1132 13.5273 19.2636C13.5273 19.4139 13.4251 19.5142 13.2717 19.5142ZM14.2937 26.0296H14.8049C14.9583 26.0296 15.0605 25.9294 15.0605 25.779C15.0605 25.6286 14.9583 25.5284 14.8049 25.5284H14.2937C14.1404 25.5284 14.0381 25.6286 14.0381 25.779C14.0381 25.9294 14.1404 26.0296 14.2937 26.0296ZM14.8049 25.0272H14.2937C14.1404 25.0272 14.0381 24.9269 14.0381 24.7766C14.0381 24.6262 14.1404 24.526 14.2937 24.526H14.8049C14.9583 24.526 15.0605 24.6262 15.0605 24.7766C15.0605 24.9269 14.9583 25.0272 14.8049 25.0272ZM14.2937 24.0247H14.8049C14.9583 24.0247 15.0605 23.9245 15.0605 23.7741C15.0605 23.6238 14.9583 23.5235 14.8049 23.5235H14.2937C14.1404 23.5235 14.0381 23.6238 14.0381 23.7741C14.0381 23.9245 14.1404 24.0247 14.2937 24.0247ZM14.8049 23.0225H14.2937C14.1404 23.0225 14.0381 22.9222 14.0381 22.7719C14.0381 22.6215 14.1404 22.5213 14.2937 22.5213H14.8049C14.9583 22.5213 15.0605 22.6215 15.0605 22.7719C15.0605 22.9222 14.9583 23.0225 14.8049 23.0225ZM14.2937 22.02H14.8049C14.9583 22.02 15.0605 21.9198 15.0605 21.7694C15.0605 21.6191 14.9583 21.5189 14.8049 21.5189H14.2937C14.1404 21.5189 14.0381 21.6191 14.0381 21.7694C14.0381 21.9198 14.1404 22.02 14.2937 22.02ZM14.8049 21.0177H14.2937C14.1404 21.0177 14.0381 20.9174 14.0381 20.7671C14.0381 20.6167 14.1404 20.5165 14.2937 20.5165H14.8049C14.9583 20.5165 15.0605 20.6167 15.0605 20.7671C15.0605 20.9174 14.9583 21.0177 14.8049 21.0177ZM14.2937 20.0153H14.8049C14.9583 20.0153 15.0605 19.9151 15.0605 19.7648C15.0605 19.6144 14.9583 19.5142 14.8049 19.5142H14.2937C14.1404 19.5142 14.0381 19.6144 14.0381 19.7648C14.0381 19.9151 14.1404 20.0153 14.2937 20.0153Z" fill="white"/>
<path d="M30.5996 10.2H22.0316C21.5726 10.2 21.083 10.02 20.7464 9.66C20.3792 9.33 20.1956 8.85 20.1956 8.4V0L30.5996 10.2Z" fill="#D6DBDF"/>
</svg>
