<svg width="170" height="118" viewBox="0 0 170 118" fill="none" xmlns="http://www.w3.org/2000/svg">
<g clip-path="url(#clip0_5384_22597)">
<path fill-rule="evenodd" clip-rule="evenodd" d="M163.768 49.0509C170.866 44.4776 176.821 38.3799 181.252 31.1866C181.49 30.7578 182.157 31.1389 181.966 31.6153C176.774 40.0473 169.39 47.0977 160.672 51.8616C158.766 52.9096 156.527 54.0053 154.145 55.0057C153.621 62.3896 149.143 69.2019 144.189 74.6327C137.806 81.6355 130.565 87.8761 122.847 93.3069C88.8811 117.269 45.1492 124.415 5.27594 112.743C4.79956 112.648 4.99011 111.886 5.46649 112.029C26.6179 118.222 49.1984 119.27 70.8262 114.935C87.9283 111.505 104.268 104.692 118.798 95.1171C126.087 90.258 132.946 84.7796 139.187 78.6343C145.618 72.2984 152.383 64.8668 153.24 55.4344V55.3392C146.285 58.1022 138.091 59.5313 132.613 54.5293C127.039 49.432 130.136 40.5713 136.758 38.237C144.57 35.474 152.192 42.3816 153.717 49.6702C154.003 51.147 154.145 52.6238 154.098 54.0529C157.48 52.7191 160.72 51.0041 163.768 49.0509ZM137.9 56.4826C142.711 57.7688 147.952 56.2444 152.477 54.6247C152.763 54.5294 153.001 54.4342 153.24 54.3389C153.382 50.0991 152.239 45.8593 149.333 42.7152C146.475 39.571 141.854 37.5702 137.614 38.7135C133.803 39.7616 130.707 43.3821 130.373 47.3361C129.992 51.9093 133.755 55.3869 137.9 56.4826Z" fill="white" fill-opacity="0.1"/>
<path d="M30.3277 15.3953C28.6402 14.7903 26.9527 14.2231 25.2652 13.618C24.9652 13.5046 24.8152 13.9962 25.1152 14.1096C26.8027 14.7146 28.4902 15.2819 30.1777 15.8869C30.4777 16.0004 30.6277 15.5088 30.3277 15.3953Z" fill="white" fill-opacity="0.1"/>
<path d="M31.2278 12.0676C29.6153 10.4415 28.0403 8.8533 26.4278 7.22725C26.2028 7.00036 25.8278 7.3407 26.0528 7.6054C27.6653 9.23145 29.2403 10.8197 30.8528 12.4457C31.1153 12.6726 31.4903 12.2945 31.2278 12.0676Z" fill="white" fill-opacity="0.1"/>
<rect x="37.1716" y="0.835449" width="88.7" height="106.237" fill="#595959"/>
<rect x="46.1716" y="16.7771" width="68.9585" height="4.5" fill="white" fill-opacity="0.3"/>
<rect x="46.1716" y="25.7771" width="68.9585" height="4.5" fill="white" fill-opacity="0.3"/>
<rect x="46.1716" y="34.7771" width="68.9585" height="4.5" fill="white" fill-opacity="0.3"/>
<rect x="46.1716" y="45.7001" width="4.5" height="4.5" fill="white" fill-opacity="0.3"/>
<path d="M82.8497 47.7001H53.5812C53.1152 47.7001 53.1152 48.4458 53.5812 48.4458H82.8497C83.3158 48.4458 83.3158 47.7001 82.8497 47.7001Z" fill="white" fill-opacity="0.3"/>
</g>
<defs>
<clipPath id="clip0_5384_22597">
<rect width="170" height="118" fill="white"/>
</clipPath>
</defs>
</svg>
