<svg width="37" height="36" viewBox="0 0 37 36" fill="none" xmlns="http://www.w3.org/2000/svg">
<g clip-path="url(#clip0_2_53155)">
<path d="M17.3424 29.1882L32.538 13.9886C32.6063 13.9203 32.6384 13.8279 32.6304 13.7355L31.6058 1.62569C31.5777 1.31229 31.3326 1.0672 31.0192 1.03908L18.9094 0.0185434C18.817 0.0105077 18.7206 0.0426504 18.6563 0.110954L3.46075 15.3065C3.40093 15.3669 3.36737 15.4485 3.36737 15.5335C3.36737 15.6185 3.40093 15.7001 3.46075 15.7605L16.8884 29.1882C17.013 29.3168 17.2179 29.3168 17.3424 29.1882ZM19.8576 3.00381L28.8817 3.7672L29.6451 12.7913L17.1134 25.319L7.32592 15.5355L19.8576 3.00381ZM22.2748 10.4863C22.4539 10.6653 22.6665 10.8074 22.9005 10.9043C23.1345 11.0012 23.3853 11.0511 23.6386 11.0511C23.8918 11.051 24.1426 11.0011 24.3766 10.9042C24.6106 10.8073 24.8232 10.6652 25.0023 10.4861C25.1814 10.307 25.3234 10.0943 25.4203 9.86034C25.5172 9.62634 25.5671 9.37554 25.5671 9.12226C25.5671 8.86899 25.5172 8.6182 25.4202 8.38421C25.3233 8.15022 25.1812 7.93762 25.0021 7.75854C24.823 7.57947 24.6104 7.43742 24.3764 7.34051C24.1424 7.24361 23.8916 7.19374 23.6383 7.19376C23.385 7.19378 23.1342 7.24368 22.9002 7.34062C22.6662 7.43756 22.4536 7.57964 22.2746 7.75875C22.0955 7.93785 21.9534 8.15047 21.8565 8.38448C21.7596 8.61848 21.7098 8.86928 21.7098 9.12255C21.7098 9.37582 21.7597 9.62661 21.8566 9.8606C21.9536 10.0946 22.0957 10.3072 22.2748 10.4863ZM33.675 19.1235L32.084 17.5364C32.0236 17.4766 31.942 17.443 31.857 17.443C31.7719 17.443 31.6904 17.4766 31.6299 17.5364L17.0853 32.0529L7.53887 22.5306C7.47846 22.4708 7.39688 22.4372 7.31186 22.4372C7.22685 22.4372 7.14527 22.4708 7.08485 22.5306L5.49378 24.1177C5.43396 24.1781 5.40041 24.2596 5.40041 24.3447C5.40041 24.4297 5.43396 24.5113 5.49378 24.5717L15.2652 34.327L16.8563 35.9141C16.9808 36.0386 17.1857 36.0386 17.3103 35.9141L33.675 19.5775C33.7996 19.4529 33.7996 19.248 33.675 19.1235Z" fill="black" fill-opacity="0.8"/>
</g>
<defs>
<clipPath id="clip0_2_53155">
<rect width="36" height="36" fill="white" transform="translate(0.499939)"/>
</clipPath>
</defs>
</svg>
