<svg width="36" height="36" viewBox="0 0 36 36" fill="none" xmlns="http://www.w3.org/2000/svg">
<path d="M18 1C8.61205 1 1 8.61205 1 18C1 27.3879 8.61205 35 18 35C27.3879 35 35 27.3879 35 18C35 8.61205 27.3879 1 18 1ZM18 32.1161C10.2058 32.1161 3.88393 25.7942 3.88393 18C3.88393 10.2058 10.2058 3.88393 18 3.88393C25.7942 3.88393 32.1161 10.2058 32.1161 18C32.1161 25.7942 25.7942 32.1161 18 32.1161Z" fill="currentColor"/>
<path d="M19.1319 18.8681H15.044L15.022 16.7363H18.5275C19.1282 16.7363 19.63 16.652 20.033 16.4835C20.4359 16.315 20.7399 16.0696 20.9451 15.7473C21.1575 15.4249 21.2637 15.033 21.2637 14.5714C21.2637 14.0586 21.1648 13.641 20.967 13.3187C20.7766 12.9963 20.4762 12.7619 20.0659 12.6154C19.6557 12.4615 19.1355 12.3846 18.5055 12.3846H16.022V26H13V10H18.5055C19.4139 10 20.2234 10.0879 20.9341 10.2637C21.652 10.4322 22.2601 10.696 22.7582 11.0549C23.2564 11.4139 23.6337 11.8645 23.8901 12.4066C24.1538 12.9487 24.2857 13.5934 24.2857 14.3407C24.2857 15 24.1319 15.6081 23.8242 16.1648C23.5238 16.7143 23.0586 17.1612 22.4286 17.5055C21.8059 17.8498 21.0147 18.0476 20.0549 18.0989L19.1319 18.8681ZM19 26H14.1538L15.4176 23.6264H19C19.6007 23.6264 20.0952 23.5275 20.4835 23.3297C20.8791 23.1319 21.1722 22.8608 21.3626 22.5165C21.5604 22.1648 21.6593 21.7619 21.6593 21.3077C21.6593 20.8095 21.5714 20.3773 21.3956 20.011C21.2271 19.6447 20.956 19.3626 20.5824 19.1648C20.2161 18.967 19.7326 18.8681 19.1319 18.8681H15.989L16.011 16.7363H20.011L20.7033 17.5604C21.6264 17.5678 22.3773 17.7509 22.956 18.1099C23.5421 18.4689 23.9744 18.9304 24.2528 19.4945C24.5311 20.0586 24.6703 20.6667 24.6703 21.3187C24.6703 22.3443 24.4469 23.2051 24 23.9011C23.5604 24.5971 22.9158 25.1209 22.0659 25.4725C21.2234 25.8242 20.2015 26 19 26Z" fill="currentColor"/>
</svg>
