<svg width="37" height="36" viewBox="0 0 37 36" fill="none" xmlns="http://www.w3.org/2000/svg">
<g clip-path="url(#clip0_2_52483)">
<path d="M34.7523 12.9263C33.8488 10.7877 32.5389 8.84461 30.8952 7.2049C29.2555 5.56123 27.3124 4.25131 25.1738 3.34776C22.9519 2.40758 20.5974 1.93347 18.1666 1.93347C15.7358 1.93347 13.3814 2.40758 11.1595 3.34776C9.02081 4.25131 7.07777 5.56123 5.43805 7.2049C3.79438 8.84461 2.48446 10.7877 1.58091 12.9263C0.640733 15.1482 0.166626 17.5027 0.166626 19.9335C0.166626 25.2652 2.50904 30.2875 6.59118 33.7187L6.65948 33.775C6.89252 33.9678 7.18582 34.0763 7.48716 34.0763H28.8501C29.1514 34.0763 29.4447 33.9678 29.6778 33.775L29.7461 33.7187C33.8242 30.2875 36.1666 25.2652 36.1666 19.9335C36.1666 17.5027 35.6885 15.1482 34.7523 12.9263ZM28.1872 31.0228H8.14609C6.59358 29.6229 5.35275 27.9123 4.50413 26.0018C3.65551 24.0914 3.21807 22.0239 3.2202 19.9335C3.2202 15.9397 4.77511 12.187 7.59966 9.36651C10.4242 6.54195 14.1769 4.98704 18.1666 4.98704C22.1604 4.98704 25.9131 6.54195 28.7336 9.36651C31.5581 12.1911 33.1131 15.9437 33.1131 19.9335C33.1131 24.1763 31.3251 28.1902 28.1872 31.0228ZM22.6465 14.3687C22.5861 14.3089 22.5045 14.2754 22.4195 14.2754C22.3345 14.2754 22.2529 14.3089 22.1925 14.3687L18.7974 17.7638C18.0461 17.5629 17.2144 17.7558 16.6238 18.3464C16.4146 18.5552 16.2486 18.8032 16.1354 19.0762C16.0221 19.3493 15.9638 19.6419 15.9638 19.9375C15.9638 20.2331 16.0221 20.5257 16.1354 20.7987C16.2486 21.0718 16.4146 21.3198 16.6238 21.5286C16.8326 21.7378 17.0806 21.9037 17.3536 22.017C17.6266 22.1302 17.9193 22.1885 18.2148 22.1885C18.5104 22.1885 18.8031 22.1302 19.0761 22.017C19.3491 21.9037 19.5971 21.7378 19.8059 21.5286C20.0857 21.2496 20.287 20.9017 20.3893 20.52C20.4916 20.1383 20.4913 19.7364 20.3885 19.3549L23.7836 15.9598C23.9081 15.8353 23.9081 15.6303 23.7836 15.5058L22.6465 14.3687ZM17.2827 10.2906H19.0506C19.2273 10.2906 19.372 10.146 19.372 9.96919V6.7549C19.372 6.57811 19.2273 6.43347 19.0506 6.43347H17.2827C17.1059 6.43347 16.9613 6.57811 16.9613 6.7549V9.96919C16.9613 10.146 17.1059 10.2906 17.2827 10.2906ZM27.7291 19.0495V20.8174C27.7291 20.9942 27.8738 21.1388 28.0506 21.1388H31.2648C31.4416 21.1388 31.5863 20.9942 31.5863 20.8174V19.0495C31.5863 18.8728 31.4416 18.7281 31.2648 18.7281H28.0506C27.8738 18.7281 27.7291 18.8728 27.7291 19.0495ZM28.2394 11.1263L26.9898 9.87678C26.9294 9.81696 26.8478 9.7834 26.7628 9.7834C26.6778 9.7834 26.5962 9.81696 26.5358 9.87678L24.2617 12.1509C24.2019 12.2113 24.1683 12.2929 24.1683 12.3779C24.1683 12.4629 24.2019 12.5445 24.2617 12.6049L25.5113 13.8545C25.6358 13.979 25.8407 13.979 25.9653 13.8545L28.2394 11.5803C28.3639 11.4558 28.3639 11.2509 28.2394 11.1263ZM9.8135 9.87678C9.75309 9.81696 9.67151 9.7834 9.58649 9.7834C9.50148 9.7834 9.41989 9.81696 9.35948 9.87678L8.10993 11.1263C8.05011 11.1867 8.01655 11.2683 8.01655 11.3533C8.01655 11.4384 8.05011 11.5199 8.10993 11.5803L10.384 13.8545C10.5086 13.979 10.7135 13.979 10.8381 13.8545L12.0876 12.6049C12.2122 12.4803 12.2122 12.2754 12.0876 12.1509L9.8135 9.87678ZM8.12198 18.7281H4.9077C4.73091 18.7281 4.58627 18.8728 4.58627 19.0495V20.8174C4.58627 20.9942 4.73091 21.1388 4.9077 21.1388H8.12198C8.29877 21.1388 8.44341 20.9942 8.44341 20.8174V19.0495C8.44341 18.8728 8.29877 18.7281 8.12198 18.7281Z" fill="currentColor" fill-opacity="0.8"/>
</g>
<defs>
<clipPath id="clip0_2_52483">
<!-- <rect width="36" height="36" fill="white" transform="translate(0.166626)"/> -->
</clipPath>
</defs>
</svg>
