<svg width="12" height="13" viewBox="0 0 12 13" fill="none" xmlns="http://www.w3.org/2000/svg">
<path d="M8.375 2.25V1.125H8.5C8.4313 1.12494 8.375 1.06872 8.375 1V1.125H3.625V1C3.625 1.06875 3.56875 1.125 3.5 1.125H3.625V2.25H8.375ZM2.19531 3.375L2.57324 11.375H9.42676L9.80469 3.375H2.19531ZM11.5 2.25C11.7766 2.25 12 2.47345 12 2.75V3.25C12 3.31875 11.9438 3.375 11.875 3.375H10.9316L10.5459 11.5469C10.5209 12.0813 10.0813 12.5 9.54688 12.5H2.45312C1.92036 12.4999 1.48008 12.0797 1.45508 11.5469L1.06934 3.375H0.125C0.0562961 3.37494 0 3.31872 0 3.25V2.75C1.57914e-05 2.47348 0.223494 2.25005 0.5 2.25H2.5V1C2.50002 0.448485 2.94849 5.53513e-05 3.5 0H8.5C9.05155 0 9.49998 0.448451 9.5 1V2.25H11.5Z" fill="#FF3D71"/>
</svg>
