<svg viewBox="0 0 16 16" fill="none" xmlns="http://www.w3.org/2000/svg">
<path d="M8.35688 7.77706H12.3431C12.7 7.77706 12.9972 8.07431 12.9972 8.4312V11.0175C11.9568 11.2853 11.1834 12.2367 11.1834 13.3661C11.1834 14.7038 12.2835 15.7744 13.5917 15.7744C14.9294 15.7744 16 14.6744 16 13.3661C16 12.2065 15.2266 11.2845 14.1862 11.0175V8.4312C14.1862 7.42018 13.3541 6.58805 12.3431 6.58805H8.35688V4.98165C9.39726 4.71376 10.1707 3.76238 10.1707 2.633C10.1707 1.29536 9.07064 0.22472 7.76238 0.22472C6.42385 0.22472 5.3541 1.32473 5.3541 2.633C5.3541 3.76327 6.12749 4.71465 7.16787 4.98165V6.58716H3.65691C2.6459 6.58716 1.81377 7.41929 1.81377 8.4303V11.0166C0.77339 11.2854 0 12.2367 0 13.367C0 14.7046 1.10001 15.7753 2.40828 15.7753C3.74591 15.7753 4.81655 14.6753 4.81655 13.367C4.81655 12.2367 4.04316 11.2853 3.00278 11.0184V8.4312C3.00278 8.07431 3.30003 7.77706 3.65691 7.77706H7.16698M6.54311 2.633C6.54311 1.94949 7.10824 1.41373 7.76238 1.41373C8.41651 1.41373 8.98164 1.97886 8.98164 2.633C8.98164 3.3165 8.41651 3.85226 7.76238 3.85226C7.10824 3.85226 6.54311 3.28713 6.54311 2.633ZM3.62754 13.3367C3.62754 14.0202 3.06241 14.556 2.40828 14.556C1.75414 14.556 1.18901 14.0211 1.18901 13.3367C1.18901 12.6532 1.75414 12.1175 2.40828 12.1175C3.06241 12.1175 3.62754 12.6826 3.62754 13.3367ZM13.5917 14.5854C12.9082 14.5854 12.3725 14.0202 12.3725 13.3661C12.3725 12.6826 12.9376 12.1468 13.5917 12.1468C14.2459 12.1468 14.811 12.712 14.811 13.3661C14.811 14.0202 14.2752 14.5854 13.5917 14.5854Z" fill="currentColor"/>
</svg>
