<svg width="37" height="36" viewBox="0 0 37 36" fill="none" xmlns="http://www.w3.org/2000/svg">
<path d="M20.4848 17.8835L17.3589 21.8692L15.7076 19.7638C15.6775 19.7254 15.6391 19.6944 15.5952 19.673C15.5514 19.6516 15.5032 19.6405 15.4545 19.6405C15.4057 19.6405 15.3575 19.6516 15.3137 19.673C15.2698 19.6944 15.2314 19.7254 15.2013 19.7638L11.1915 24.8746C11.1544 24.9219 11.1314 24.9788 11.1251 25.0386C11.1188 25.0985 11.1294 25.1589 11.1558 25.2129C11.1822 25.267 11.2233 25.3125 11.2744 25.3444C11.3255 25.3762 11.3845 25.393 11.4446 25.3929H26.2263C26.4955 25.3929 26.6442 25.0835 26.4795 24.8746L20.9951 17.8835C20.9646 17.845 20.9258 17.8139 20.8816 17.7926C20.8375 17.7712 20.789 17.7601 20.7399 17.7601C20.6909 17.7601 20.6424 17.7712 20.5982 17.7926C20.5541 17.8139 20.5153 17.845 20.4848 17.8835ZM12.7263 15.1875C12.7263 15.6137 12.8957 16.0225 13.197 16.3239C13.4984 16.6253 13.9072 16.7946 14.3335 16.7946C14.7597 16.7946 15.1685 16.6253 15.4699 16.3239C15.7713 16.0225 15.9406 15.6137 15.9406 15.1875C15.9406 14.7613 15.7713 14.3525 15.4699 14.0511C15.1685 13.7497 14.7597 13.5804 14.3335 13.5804C13.9072 13.5804 13.4984 13.7497 13.197 14.0511C12.8957 14.3525 12.7263 14.7613 12.7263 15.1875ZM32.5986 9.02411L23.9522 0.377679C23.7112 0.136607 23.3857 0 23.0442 0H5.97633C5.26517 0 4.69061 0.574554 4.69061 1.28571V34.7143C4.69061 35.4254 5.26517 36 5.97633 36H31.6906C32.4018 36 32.9763 35.4254 32.9763 34.7143V9.93616C32.9763 9.59464 32.8397 9.26518 32.5986 9.02411ZM30.0112 10.5268H22.4495V2.96518L30.0112 10.5268ZM30.0835 33.1071H7.58347V2.89286H19.7174V11.5714C19.7174 12.019 19.8952 12.4482 20.2117 12.7647C20.5281 13.0811 20.9573 13.2589 21.4049 13.2589H30.0835V33.1071Z" fill="currentColor" />
</svg>
