<svg width="37" height="36" viewBox="0 0 37 36" fill="none" xmlns="http://www.w3.org/2000/svg">
<path fill-rule="evenodd" clip-rule="evenodd" d="M17.5268 8.00966H30.2082C30.8828 8.00966 31.4277 8.55463 31.4277 9.22917V27.4304C31.4277 28.1049 30.8828 28.6499 30.2082 28.6499H3.15945C2.48491 28.6499 1.93994 28.1049 1.93994 27.4304V4.86941C1.93994 4.19487 2.48491 3.6499 3.15945 3.6499H12.847C12.9249 3.65057 12.9997 3.6805 13.0566 3.73374L17.5268 8.00966ZM4.68384 25.906H28.6838V10.7536H16.4255L11.8675 6.3938H4.68384V25.906Z" fill="currentColor"/>
<path d="M35.0649 13.0999C35.0649 12.4095 34.5053 11.8499 33.8149 11.8499C33.1246 11.8499 32.5649 12.4095 32.5649 13.0999V29.8499H5.81494C5.12459 29.8499 4.56494 30.4095 4.56494 31.0999C4.56494 31.7902 5.12459 32.3499 5.81494 32.3499H33.3149C34.2814 32.3499 35.0649 31.5664 35.0649 30.5999V13.0999Z" fill="currentColor"/>
</svg>
