<svg width="14" height="14" viewBox="0 0 14 14" fill="none" xmlns="http://www.w3.org/2000/svg">
<path d="M5.22266 1.87305C5.25444 1.87343 5.28538 1.8855 5.30859 1.90723L7.14062 3.66016H12.75C13.0264 3.66016 13.2498 3.88379 13.25 4.16016V11.623C13.25 11.8996 13.0266 12.123 12.75 12.123H1.25C0.973592 12.1229 0.75 11.8995 0.75 11.623V2.37305C0.750019 2.09661 0.973604 1.87323 1.25 1.87305H5.22266ZM1.875 9.78906V10.998H8.73047L4.29688 7.85156L1.875 9.78906ZM1.875 2.99805V8.44434L4.25879 6.53711L10.5449 10.998H12.125V4.78516H6.68945L4.82031 2.99805H1.875ZM9.72266 5.75586C10.5171 5.75604 11.1611 6.39982 11.1611 7.19434C11.1611 7.9889 10.5172 8.63361 9.72266 8.63379C8.92798 8.63379 8.2832 7.98901 8.2832 7.19434C8.28327 6.39971 8.92802 5.75586 9.72266 5.75586ZM9.72266 6.68848C9.44348 6.68848 9.21686 6.91518 9.2168 7.19434C9.2168 7.47355 9.44345 7.7002 9.72266 7.7002C10.0017 7.70002 10.2275 7.47344 10.2275 7.19434C10.2275 6.91529 10.0017 6.68865 9.72266 6.68848Z" fill="#192038"/>
</svg>
