<svg width="36" height="36" viewBox="0 0 36 36" fill="none" xmlns="http://www.w3.org/2000/svg">
<path d="M29.4549 8.26655C29.4549 8.16921 29.4163 8.07996 29.3545 8.01692C29.2933 7.95452 29.2147 7.92282 29.1365 7.92282C25.5414 7.92282 21.2977 5.79855 18.3748 3.19703C18.2676 3.10385 18.1346 3.05589 18 3.05589C17.8654 3.05589 17.7324 3.10481 17.6252 3.19799C14.7194 5.78211 10.4595 7.92282 6.86348 7.92282C6.78535 7.92282 6.7067 7.95452 6.6455 8.01692C6.58368 8.07996 6.54511 8.16922 6.54511 8.26655V19.6202C6.54511 23.3437 7.80941 26.0679 9.80346 28.15C11.7042 30.1347 14.3208 31.5883 17.2963 32.6972L17.8958 32.9152L17.9254 32.9258C17.9906 32.9504 18.0616 32.9513 18.1272 32.9286C21.339 31.7862 24.1735 30.2699 26.1975 28.1529C28.1904 26.0684 29.4549 23.3436 29.4549 19.6202V8.26655ZM32 19.6202C32 24.0066 30.48 27.365 28.0341 29.9234C25.6217 32.4468 22.3675 34.1335 18.9656 35.3424L18.9551 35.3453C18.3371 35.5588 17.6665 35.5506 17.0535 35.3251V35.3271C13.6428 34.1263 10.3838 32.444 7.96872 29.9224C5.5201 27.3657 4 24.0066 4 19.6202V8.26655C4.00001 7.50358 4.29693 6.76772 4.8318 6.22242C5.36729 5.67656 6.09781 5.36694 6.86348 5.36694C9.62699 5.36694 13.3159 3.61935 15.9463 1.27675C15.9498 1.27364 15.9533 1.27023 15.9568 1.26715C16.5237 0.7734 17.2481 0.5 18 0.5C18.6578 0.5 19.2946 0.709295 19.8233 1.0924L20.0432 1.26715L20.0537 1.27675C22.6987 3.63442 26.3721 5.36694 29.1365 5.36694C29.9022 5.36694 30.6327 5.67656 31.1682 6.22242C31.7031 6.76772 32 7.50358 32 8.26655V19.6202Z" fill="black"/>
<path d="M21.6132 20.3254H18.1659V18.3401H21.6132C22.177 18.3401 22.6336 18.2482 22.9829 18.0643C23.3384 17.8744 23.5988 17.617 23.7643 17.2923C23.9298 16.9614 24.0125 16.5846 24.0125 16.1618C24.0125 15.7512 23.9298 15.3683 23.7643 15.0129C23.5988 14.6575 23.3384 14.3695 22.9829 14.1489C22.6336 13.9283 22.177 13.818 21.6132 13.818H18.9933V25.2059H16.4653V11.8235H21.6132C22.655 11.8235 23.5437 12.0104 24.2791 12.3842C25.0206 12.7518 25.5844 13.2635 25.9705 13.9191C26.3628 14.5686 26.5589 15.31 26.5589 16.1434C26.5589 17.0074 26.3628 17.7518 25.9705 18.3768C25.5844 19.0018 25.0206 19.4828 24.2791 19.8199C23.5437 20.1569 22.655 20.3254 21.6132 20.3254Z" fill="black"/>
<path d="M13.7351 11.8235V25.2059H11.2071V11.8235H13.7351Z" fill="black"/>
</svg>
