<svg width="37" height="36" viewBox="0 0 37 36" fill="none" xmlns="http://www.w3.org/2000/svg">
<path d="M25.4325 14.015L25.4405 14.007L24.0503 12.2271C24.0245 12.1938 23.9924 12.1659 23.9558 12.1451C23.9192 12.1242 23.8788 12.1108 23.837 12.1056C23.7952 12.1004 23.7528 12.1034 23.7122 12.1146C23.6716 12.1258 23.6335 12.1449 23.6003 12.1708L21.5753 13.7499L18.7427 10.1298C18.7169 10.0965 18.6848 10.0686 18.6482 10.0478C18.6116 10.0269 18.5712 10.0135 18.5294 10.0083C18.4876 10.003 18.4452 10.0061 18.4046 10.0173C18.364 10.0285 18.326 10.0476 18.2927 10.0735L16.77 11.2668C16.7367 11.2926 16.7088 11.3248 16.688 11.3614C16.6671 11.398 16.6537 11.4384 16.6485 11.4802C16.6432 11.522 16.6463 11.5644 16.6575 11.605C16.6687 11.6456 16.6878 11.6836 16.7137 11.7168L19.5463 15.3409L19.5383 15.345L20.9285 17.1249C21.0369 17.2655 21.2378 17.2896 21.3785 17.1811L23.4035 15.6021L25.9789 18.8967C26.0874 19.0374 26.2883 19.0615 26.4289 18.953L27.9517 17.7637C28.0923 17.6552 28.1164 17.4543 28.0079 17.3137L25.4325 14.015ZM22.0253 1.93335C15.2793 1.93335 9.81104 7.40165 9.81104 14.1476C9.81104 16.9722 10.7713 19.5717 12.3785 21.6409L2.18917 31.8302C2.12935 31.8906 2.09579 31.9722 2.09579 32.0572C2.09579 32.1423 2.12935 32.2238 2.18917 32.2842L3.88872 33.9838C4.01328 34.1084 4.21819 34.1084 4.34274 33.9838L14.532 23.7945C16.6012 25.4017 19.2008 26.3619 22.0253 26.3619C28.7713 26.3619 34.2396 20.8936 34.2396 14.1476C34.2396 7.40165 28.7713 1.93335 22.0253 1.93335ZM28.5021 20.6244C26.7744 22.3561 24.4722 23.3084 22.0253 23.3084C19.5785 23.3084 17.2762 22.3561 15.5485 20.6244C13.8168 18.8967 12.8646 16.5945 12.8646 14.1476C12.8646 11.7008 13.8168 9.39853 15.5485 7.67085C17.2762 5.93915 19.5785 4.98692 22.0253 4.98692C24.4722 4.98692 26.7744 5.93915 28.5021 7.67085C30.2338 9.39853 31.186 11.7008 31.186 14.1476C31.186 16.5945 30.2338 18.8967 28.5021 20.6244Z" fill="currentColor" fill-opacity="0.8"/>
</svg>
