<svg width="36" height="36" viewBox="0 0 36 36" fill="none" xmlns="http://www.w3.org/2000/svg">
<path d="M17.9559 0.5C18.7499 0.5 19.5295 0.708081 20.2177 1.10217L20.2186 1.10121L31.6395 7.59567L31.6442 7.59852C32.333 7.99426 32.9048 8.56376 33.3028 9.24901C33.7008 9.93419 33.9109 10.7112 33.9118 11.5026V24.4934C33.9109 25.2849 33.7009 26.0627 33.3028 26.748C32.9048 27.433 32.3329 28.0018 31.6442 28.3975L31.6395 28.4004L20.2186 34.8948L20.2177 34.8939C19.5295 35.288 18.75 35.497 17.9559 35.497C17.1615 35.497 16.3815 35.2883 15.6931 34.8939L4.27231 28.4004L4.26753 28.3975C3.5789 28.0018 3.00695 27.433 2.60894 26.748C2.21091 26.0627 2.00082 25.2849 2 24.4934V11.5026C2.00084 10.7112 2.21098 9.93419 2.60894 9.24901C3.00698 8.56376 3.57872 7.99426 4.26753 7.59852L4.27231 7.59567L15.6931 1.10121C16.3815 0.706863 17.1616 0.5 17.9559 0.5ZM17.9559 3.03233C17.6065 3.03233 17.2633 3.12394 16.9607 3.29774L16.956 3.3006L5.53513 9.79505C5.23516 9.96857 4.98612 10.2172 4.81243 10.5161C4.63775 10.8168 4.54512 11.1581 4.54476 11.5055V24.4906C4.54512 24.8379 4.63779 25.1792 4.81243 25.4799C4.98618 25.779 5.23499 26.0284 5.53513 26.2019L16.956 32.6954L16.9607 32.6983C17.2633 32.8721 17.6065 32.9637 17.9559 32.9637C18.3053 32.9637 18.6484 32.8721 18.951 32.6983L18.9558 32.6954L30.3766 26.2019C30.6768 26.0284 30.9256 25.779 31.0993 25.4799C31.2737 25.1796 31.3664 24.8393 31.367 24.4925V11.5055L31.3622 11.3751C31.3419 11.0731 31.2521 10.7792 31.0993 10.5161C30.9256 10.2172 30.6766 9.96857 30.3766 9.79505L18.9558 3.3006L18.951 3.29774C18.6485 3.12394 18.3052 3.03233 17.9559 3.03233Z" fill="black"/>
<path d="M16.6835 34.2338V17.9982C16.6835 17.2988 17.2531 16.732 17.9559 16.732C18.6587 16.732 19.2283 17.2988 19.2283 17.9982V34.2338C19.2281 34.9331 18.6586 35.5 17.9559 35.5C17.2532 35.5 16.6837 34.9331 16.6835 34.2338Z" fill="black"/>
<path d="M31.5323 8.78272C32.1418 8.43453 32.9203 8.64327 33.2703 9.2498C33.6201 9.85626 33.4092 10.63 32.7999 10.9783L18.5896 19.0966C18.1973 19.3207 17.7144 19.3207 17.322 19.0966L3.11171 10.9783C2.50249 10.63 2.29251 9.85623 2.64234 9.2498C2.99235 8.64355 3.76991 8.4346 4.37931 8.78272L17.9558 16.5376L31.5323 8.78272Z" fill="black"/>
<path d="M9.51 4.81946C9.85908 4.21247 10.636 4.00217 11.246 4.34952L25.9295 12.7104C26.5395 13.0577 26.7507 13.8309 26.4018 14.4379C26.0527 15.0449 25.2757 15.256 24.6657 14.9088L9.98224 6.547C9.37228 6.19962 9.16095 5.42647 9.51 4.81946Z" fill="black"/>
</svg>
