<svg width="37" height="36" viewBox="0 0 37 36" fill="none" xmlns="http://www.w3.org/2000/svg">
<g clip-path="url(#clip0_2_53076)">
<path d="M35.4186 22.5741L32.7869 20.3241C32.9115 19.5607 32.9757 18.7812 32.9757 18.0018C32.9757 17.2223 32.9115 16.4428 32.7869 15.6794L35.4186 13.4294C35.6171 13.2595 35.7592 13.0332 35.8259 12.7806C35.8927 12.5279 35.8809 12.261 35.7923 12.0152L35.7561 11.9107C35.0316 9.8858 33.9467 8.00869 32.5539 6.37007L32.4815 6.28569C32.3126 6.08702 32.0874 5.9442 31.8356 5.87606C31.5839 5.80793 31.3174 5.81766 31.0713 5.904L27.8048 7.06516C26.5994 6.07676 25.2534 5.2973 23.799 4.75087L23.1681 1.33569C23.1206 1.07872 22.9959 0.84231 22.8107 0.657872C22.6256 0.473434 22.3887 0.349698 22.1315 0.303104L22.0231 0.283015C19.9298 -0.0946638 17.728 -0.0946638 15.6347 0.283015L15.5262 0.303104C15.269 0.349698 15.0321 0.473434 14.847 0.657872C14.6618 0.84231 14.5372 1.07872 14.4896 1.33569L13.8548 4.76694C12.4119 5.31349 11.0682 6.09254 9.87708 7.07319L6.58645 5.904C6.34042 5.81698 6.07374 5.80689 5.82184 5.87507C5.56993 5.94325 5.34474 6.08646 5.17619 6.28569L5.10386 6.37007C3.71267 8.00985 2.62796 9.88665 1.90163 11.9107L1.86547 12.0152C1.68467 12.5174 1.83333 13.0799 2.23913 13.4294L4.90297 15.7036C4.77842 16.4589 4.71815 17.2303 4.71815 17.9977C4.71815 18.7692 4.77842 19.5406 4.90297 20.2919L2.23913 22.5661C2.04063 22.736 1.89856 22.9623 1.83182 23.2149C1.76507 23.4676 1.77681 23.7345 1.86547 23.9803L1.90163 24.0848C2.62886 26.1098 3.70565 27.9781 5.10386 29.6254L5.17619 29.7098C5.34515 29.9085 5.57035 30.0513 5.8221 30.1194C6.07386 30.1876 6.34035 30.1778 6.58645 30.0915L9.87708 28.9223C11.0744 29.9067 12.4123 30.6861 13.8548 31.2285L14.4896 34.6598C14.5372 34.9168 14.6618 35.1532 14.847 35.3376C15.0321 35.5221 15.269 35.6458 15.5262 35.6924L15.6347 35.7125C17.7472 36.0922 19.9105 36.0922 22.0231 35.7125L22.1315 35.6924C22.3887 35.6458 22.6256 35.5221 22.8107 35.3376C22.9959 35.1532 23.1206 34.9168 23.1681 34.6598L23.799 31.2446C25.2528 30.6996 26.6064 29.9176 27.8048 28.9303L31.0713 30.0915C31.3173 30.1785 31.584 30.1886 31.8359 30.1204C32.0878 30.0522 32.313 29.909 32.4815 29.7098L32.5539 29.6254C33.9521 27.9741 35.0289 26.1098 35.7561 24.0848L35.7923 23.9803C35.9731 23.4861 35.8244 22.9236 35.4186 22.5741ZM29.9342 16.1535C30.0347 16.7602 30.0869 17.383 30.0869 18.0058C30.0869 18.6285 30.0347 19.2513 29.9342 19.858L29.669 21.4692L32.6704 24.0366C32.2154 25.0848 31.6411 26.0771 30.9588 26.9937L27.2302 25.6719L25.9686 26.7085C25.0083 27.496 23.9396 28.1147 22.7824 28.5486L21.2516 29.1232L20.5324 33.0205C19.3977 33.1491 18.252 33.1491 17.1173 33.0205L16.3981 29.1152L14.8793 28.5326C13.7342 28.0986 12.6695 27.4799 11.7173 26.6964L10.4556 25.6558L6.70297 26.9897C6.01994 26.0696 5.4494 25.0772 4.99136 24.0326L8.02485 21.4411L7.76369 19.8339C7.66726 19.2352 7.61503 18.6165 7.61503 18.0058C7.61503 17.3911 7.66324 16.7763 7.76369 16.1777L8.02485 14.5705L4.99136 11.979C5.44538 10.9303 6.01994 9.94194 6.70297 9.02185L10.4556 10.3558L11.7173 9.31516C12.6695 8.53168 13.7342 7.91293 14.8793 7.479L16.4021 6.90444L17.1213 2.99909C18.2503 2.87051 19.4034 2.87051 20.5365 2.99909L21.2556 6.89641L22.7865 7.47096C23.9396 7.90489 25.0123 8.52364 25.9726 9.31114L27.2342 10.3477L30.9628 9.02587C31.6458 9.94596 32.2164 10.9384 32.6744 11.983L29.6731 14.5504L29.9342 16.1535ZM18.8329 10.5326C14.9275 10.5326 11.7615 13.6986 11.7615 17.604C11.7615 21.5094 14.9275 24.6754 18.8329 24.6754C22.7382 24.6754 25.9043 21.5094 25.9043 17.604C25.9043 13.6986 22.7382 10.5326 18.8329 10.5326ZM22.015 20.7861C21.5977 21.2047 21.1017 21.5366 20.5555 21.7628C20.0094 21.989 19.424 22.1049 18.8329 22.104C17.6315 22.104 16.5025 21.6339 15.6507 20.7861C15.2322 20.3688 14.9003 19.8728 14.6741 19.3267C14.4479 18.7805 14.332 18.1951 14.3329 17.604C14.3329 16.4027 14.803 15.2736 15.6507 14.4219C16.5025 13.5701 17.6315 13.104 18.8329 13.104C20.0342 13.104 21.1632 13.5701 22.015 14.4219C22.4336 14.8392 22.7655 15.3352 22.9917 15.8813C23.2178 16.4275 23.3338 17.0129 23.3329 17.604C23.3329 18.8053 22.8628 19.9344 22.015 20.7861Z" fill="currentColor" fill-opacity="0.8"/>
</g>
<defs>
<clipPath id="clip0_2_53076">
<!-- <rect width="36" height="36" fill="white" transform="translate(0.833313)"/> -->
</clipPath>
</defs>
</svg>
