<svg width="36" height="36" viewBox="0 0 36 36" fill="none" xmlns="http://www.w3.org/2000/svg">
<path d="M26.2733 32.264C26.2733 30.0698 25.401 27.966 23.8495 26.4144C22.298 24.8629 20.1942 23.9907 18 23.9907C15.8058 23.9907 13.702 24.8629 12.1505 26.4144C10.599 27.966 9.72671 30.0698 9.72671 32.264C9.72671 32.9467 9.17342 33.5 8.49068 33.5C7.80794 33.5 7.25466 32.9467 7.25466 32.264C7.25466 29.4141 8.38666 26.681 10.4018 24.6658C12.417 22.6506 15.1501 21.5186 18 21.5186C20.8499 21.5186 23.583 22.6506 25.5982 24.6658C27.6133 26.681 28.7453 29.4141 28.7453 32.264C28.7453 32.9467 28.1921 33.5 27.5093 33.5C26.8266 33.5 26.2733 32.9467 26.2733 32.264Z" fill="black"/>
<path d="M23.1032 16.4153C23.1032 13.5969 20.8187 11.3116 18.0003 11.3114C15.1819 11.3114 12.8965 13.5968 12.8965 16.4153C12.8967 19.2336 15.1816 21.5186 18 21.5186C20.8182 21.5185 23.1031 19.2335 23.1032 16.4153ZM25.5762 16.4153C25.5761 20.599 22.1837 23.9905 18 23.9907C13.8161 23.9907 10.4246 20.5991 10.4245 16.4153C10.4245 12.2313 13.8164 8.83939 18.0003 8.83939C22.1842 8.83956 25.5762 12.2314 25.5762 16.4153Z" fill="black"/>
<path d="M31.028 6.90549C31.0278 5.83786 30.1621 4.97222 29.0945 4.97205H6.90549C5.83786 4.97222 4.97222 5.83786 4.97205 6.90549V29.0945C4.97222 30.1621 5.83786 31.0278 6.90549 31.028H29.0945C30.1621 31.0278 31.0278 30.1621 31.028 29.0945V6.90549ZM33.5 29.0945C33.4998 31.5276 31.5276 33.4998 29.0945 33.5H6.90549C4.47238 33.4998 2.50017 31.5276 2.5 29.0945V6.90549C2.50017 4.47238 4.47238 2.50017 6.90549 2.5H29.0945C31.5276 2.50017 33.4998 4.47238 33.5 6.90549V29.0945Z" fill="black"/>
</svg>
