<svg width="37" height="36" viewBox="0 0 37 36" fill="none" xmlns="http://www.w3.org/2000/svg">
<path d="M35.4919 15.803L34.3026 3.24321C34.2423 2.59232 33.724 2.07803 33.0731 2.01375L20.5133 0.824463H20.4972C20.3686 0.824463 20.2682 0.864642 20.1919 0.940981L1.80004 19.3327C1.40951 19.7233 1.40951 20.3564 1.80003 20.747L11.6758 30.6227L13.8334 28.4651L5.7637 20.3954C5.56844 20.2002 5.56844 19.8836 5.7637 19.6883L21.4695 3.9825L31.3936 4.92268L32.3338 14.8468L29.6646 17.516L31.8262 19.6776L35.3794 16.1245C35.4597 16.0401 35.4999 15.9236 35.4919 15.803Z" fill="currentColor"/>
<path d="M31.0378 20.3345V34.3311H28.5219V20.3345H31.0378Z" fill="currentColor"/>
<path fill-rule="evenodd" clip-rule="evenodd" d="M18.5824 34.3345L19.5779 30.7295V30.7365H23.8272L24.826 34.3345H27.5009L23.2515 20.3379H20.3063L16.0378 34.3345H18.5824ZM21.7664 23.012L23.3249 28.6716H20.0997L21.6582 23.012H21.7664Z" fill="currentColor"/>
<path d="M28.6045 10.4928C28.6045 11.8735 27.4852 12.9928 26.1045 12.9928C24.7238 12.9928 23.6045 11.8735 23.6045 10.4928C23.6045 9.11209 24.7238 7.9928 26.1045 7.9928C27.4852 7.9928 28.6045 9.11209 28.6045 10.4928Z" fill="currentColor"/>
</svg>
