<svg width="37" height="36" viewBox="0 0 37 36" fill="none" xmlns="http://www.w3.org/2000/svg">
<path d="M35.9497 15.8577L34.7605 3.2979C34.7002 2.64701 34.1819 2.13272 33.531 2.06844L20.9712 0.87915H20.9551C20.8265 0.87915 20.7261 0.919329 20.6497 0.995668L1.83411 19.8113C1.79687 19.8485 1.76732 19.8926 1.74715 19.9412C1.72699 19.9898 1.71661 20.0419 1.71661 20.0946C1.71661 20.1472 1.72699 20.1993 1.74715 20.2479C1.76732 20.2965 1.79687 20.3406 1.83411 20.3778L16.4511 34.9948C16.5274 35.0711 16.6279 35.1113 16.7363 35.1113C16.8448 35.1113 16.9453 35.0711 17.0216 34.9948L35.8372 16.1792C35.9176 16.0948 35.9578 15.9783 35.9497 15.8577ZM16.7323 30.9609L5.86804 20.0966L21.9274 4.03719L31.8515 4.97737L32.7917 14.9015L16.7323 30.9609ZM25.5837 7.70951C23.635 7.70951 22.048 9.29656 22.048 11.2452C22.048 13.1939 23.635 14.7809 25.5837 14.7809C27.5323 14.7809 29.1194 13.1939 29.1194 11.2452C29.1194 9.29656 27.5323 7.70951 25.5837 7.70951ZM25.5837 12.5309C24.8725 12.5309 24.298 11.9564 24.298 11.2452C24.298 10.5341 24.8725 9.95951 25.5837 9.95951C26.2948 9.95951 26.8694 10.5341 26.8694 11.2452C26.8694 11.9564 26.2948 12.5309 25.5837 12.5309Z" fill="currentColor" />
</svg>
