<svg width="37" height="36" viewBox="0 0 37 36" fill="none" xmlns="http://www.w3.org/2000/svg">
<path fill-rule="evenodd" clip-rule="evenodd" d="M34.9611 33.3876L31.2124 29.6389C32.1084 28.4537 32.6428 26.9751 32.6428 25.372C32.6428 21.4666 29.4767 18.3005 25.5714 18.3005C21.666 18.3005 18.4999 21.4666 18.4999 25.372C18.4999 29.2773 21.666 32.4434 25.5714 32.4434C27.0098 32.4434 28.3437 32.0135 29.4607 31.2782L33.2656 35.0831C33.3298 35.1474 33.4102 35.1755 33.4906 35.1755C33.5709 35.1755 33.6553 35.1434 33.7156 35.0831L34.9611 33.8376C34.9907 33.8081 35.0143 33.773 35.0303 33.7344C35.0464 33.6958 35.0546 33.6544 35.0546 33.6126C35.0546 33.5708 35.0464 33.5294 35.0303 33.4908C35.0143 33.4521 34.9907 33.4171 34.9611 33.3876ZM25.5714 29.8719C23.0843 29.8719 21.0714 27.859 21.0714 25.3719C21.0714 22.8849 23.0843 20.8719 25.5714 20.8719C28.0584 20.8719 30.0714 22.8849 30.0714 25.3719C30.0714 27.859 28.0584 29.8719 25.5714 29.8719Z" fill="currentColor"/>
<path d="M34.3025 3.24321L35.4918 15.803C35.4998 15.9236 35.4597 16.0401 35.3793 16.1245L31.8261 19.6776L29.6645 17.516L32.3338 14.8468L31.3936 4.92268L21.4695 3.9825L5.76364 19.6883C5.56838 19.8836 5.56838 20.2002 5.76364 20.3954L16.1954 30.8272L20.0049 31.4777L16.2279 35.1755L15.8814 34.8231L15.8787 34.8257L1.79997 20.747C1.40945 20.3564 1.40945 19.7233 1.79997 19.3327L20.1918 0.940981C20.2681 0.864642 20.3686 0.824463 20.4972 0.824463H20.5132L33.073 2.01375C33.7239 2.07803 34.2422 2.59232 34.3025 3.24321Z" fill="currentColor"/>
<path d="M26.1044 12.9928C27.4851 12.9928 28.6044 11.8735 28.6044 10.4928C28.6044 9.11209 27.4851 7.9928 26.1044 7.9928C24.7237 7.9928 23.6044 9.11209 23.6044 10.4928C23.6044 11.8735 24.7237 12.9928 26.1044 12.9928Z" fill="currentColor"/>
</svg>
