<svg width="37" height="36" viewBox="0 0 37 36" fill="none" xmlns="http://www.w3.org/2000/svg">
<path d="M30.7111 25.5553C29.7054 24.5488 28.5303 23.7273 27.2397 23.1285C29.0598 21.6539 30.2209 19.4039 30.2209 16.8807C30.2209 12.4289 26.5084 8.7767 22.0566 8.84501C17.6732 8.91331 14.1415 12.4852 14.1415 16.8807C14.1415 19.4039 15.3066 21.6539 17.1227 23.1285C15.8318 23.7269 14.6566 24.5484 13.6513 25.5553C11.4575 27.753 10.212 30.6539 10.1316 33.7477C10.1306 33.7906 10.1381 33.8332 10.1538 33.8732C10.1694 33.9131 10.1929 33.9495 10.2229 33.9802C10.2528 34.0109 10.2886 34.0353 10.3282 34.0519C10.3677 34.0686 10.4102 34.0772 10.4531 34.0772H12.7031C12.8758 34.0772 13.0205 33.9405 13.0245 33.7678C13.1008 31.4374 14.045 29.2557 15.7044 27.6004C16.5535 26.7467 17.5635 26.07 18.676 25.6093C19.7884 25.1486 20.9812 24.9131 22.1852 24.9164C24.6321 24.9164 26.9343 25.8687 28.666 27.6004C30.3214 29.2557 31.2656 31.4374 31.3459 33.7678C31.3499 33.9405 31.4946 34.0772 31.6674 34.0772H33.9174C33.9602 34.0772 34.0027 34.0686 34.0422 34.0519C34.0818 34.0353 34.1176 34.0109 34.1475 33.9802C34.1775 33.9495 34.201 33.9131 34.2167 33.8732C34.2323 33.8332 34.2399 33.7906 34.2388 33.7477C34.1584 30.6539 32.9129 27.753 30.7111 25.5553ZM22.1852 22.0236C20.8111 22.0236 19.5174 21.4892 18.5491 20.5169C18.0631 20.0348 17.6792 19.4597 17.4204 18.826C17.1615 18.1923 17.033 17.513 17.0424 16.8285C17.0544 15.5106 17.5807 14.237 18.5008 13.2928C19.4651 12.3044 20.7549 11.7539 22.133 11.7379C23.495 11.7258 24.8169 12.2562 25.7892 13.2084C26.7857 14.1847 27.3321 15.4905 27.3321 16.8807C27.3321 18.2548 26.7977 19.5446 25.8254 20.5169C25.3484 20.9962 24.781 21.3762 24.1562 21.6348C23.5314 21.8934 22.8614 22.0255 22.1852 22.0236ZM12.1205 17.9414C12.0843 17.5919 12.0642 17.2383 12.0642 16.8807C12.0642 16.2419 12.1245 15.6191 12.237 15.0124C12.2651 14.8678 12.1888 14.7191 12.0562 14.6588C11.5098 14.4138 11.0075 14.0763 10.5736 13.6504C10.0623 13.1546 9.65994 12.5577 9.39221 11.8977C9.12449 11.2377 8.99728 10.5292 9.01869 9.81733C9.05485 8.5276 9.57316 7.30215 10.4772 6.37804C11.4696 5.36152 12.8035 4.80706 14.2218 4.82313C15.5035 4.83519 16.741 5.32938 17.6772 6.20527C17.9946 6.5026 18.2678 6.83206 18.4968 7.18563C18.5772 7.31019 18.7339 7.36242 18.8705 7.3142C19.5776 7.06911 20.3249 6.89635 21.0924 6.81599C21.3174 6.79188 21.4459 6.55081 21.3455 6.34992C20.0397 3.76643 17.3718 1.98251 14.2861 1.93429C9.8303 1.86599 6.1178 5.51822 6.1178 9.96599C6.1178 12.4892 7.27896 14.7392 9.09905 16.2138C7.82137 16.8044 6.64414 17.62 5.6236 18.6405C3.42182 20.8383 2.17628 23.7392 2.09593 26.837C2.09485 26.8799 2.10237 26.9225 2.11805 26.9624C2.13372 27.0024 2.15723 27.0388 2.18718 27.0695C2.21714 27.1002 2.25293 27.1246 2.29246 27.1412C2.33199 27.1579 2.37446 27.1665 2.41735 27.1664H4.67137C4.84414 27.1664 4.98878 27.0298 4.9928 26.8571C5.06914 24.5267 6.01334 22.345 7.67271 20.6897C8.85396 19.5084 10.3004 18.6888 11.8794 18.291C12.0361 18.2508 12.1406 18.1021 12.1205 17.9414Z" fill="currentColor" fill-opacity="0.8"/>
</svg>
