<svg width="16" height="12" viewBox="0 0 16 12" fill="none" xmlns="http://www.w3.org/2000/svg">
<path d="M15.4674 5.36071C13.7745 1.79464 11.2156 0 7.78526 0C4.35312 0 1.79597 1.79464 0.103117 5.3625C0.0352155 5.50628 0 5.66331 0 5.82232C0 5.98133 0.0352155 6.13836 0.103117 6.28214C1.79597 9.84821 4.3549 11.6429 7.78526 11.6429C11.2174 11.6429 13.7745 9.84822 15.4674 6.28036C15.6049 5.99107 15.6049 5.65536 15.4674 5.36071ZM7.78526 10.3571C4.9049 10.3571 2.79597 8.89643 1.30847 5.82143C2.79597 2.74643 4.9049 1.28571 7.78526 1.28571C10.6656 1.28571 12.7745 2.74643 14.262 5.82143C12.7763 8.89643 10.6674 10.3571 7.78526 10.3571ZM7.71383 2.67857C5.97812 2.67857 4.57097 4.08571 4.57097 5.82143C4.57097 7.55714 5.97812 8.96429 7.71383 8.96429C9.44954 8.96429 10.8567 7.55714 10.8567 5.82143C10.8567 4.08571 9.44954 2.67857 7.71383 2.67857ZM7.71383 7.82143C6.60847 7.82143 5.71383 6.92679 5.71383 5.82143C5.71383 4.71607 6.60847 3.82143 7.71383 3.82143C8.81919 3.82143 9.71383 4.71607 9.71383 5.82143C9.71383 6.92679 8.81919 7.82143 7.71383 7.82143Z" fill="white"/>
</svg>
