<svg width="37" height="36" viewBox="0 0 37 36" fill="none" xmlns="http://www.w3.org/2000/svg">
<path d="M36.1785 16.4732H31.2687C30.5736 10.5911 25.9089 5.92634 20.0267 5.23125V0.321429C20.0267 0.144643 19.8821 0 19.7053 0H17.2946C17.1178 0 16.9732 0.144643 16.9732 0.321429V5.23125C11.091 5.92634 6.42628 10.5911 5.73119 16.4732H0.821368C0.644582 16.4732 0.499939 16.6179 0.499939 16.7946V19.2054C0.499939 19.3821 0.644582 19.5268 0.821368 19.5268H5.73119C6.42628 25.4089 11.091 30.0737 16.9732 30.7687V35.6786C16.9732 35.8554 17.1178 36 17.2946 36H19.7053C19.8821 36 20.0267 35.8554 20.0267 35.6786V30.7687C25.9089 30.0737 30.5736 25.4089 31.2687 19.5268H36.1785C36.3553 19.5268 36.4999 19.3821 36.4999 19.2054V16.7946C36.4999 16.6179 36.3553 16.4732 36.1785 16.4732ZM18.4999 27.8036C13.0839 27.8036 8.69637 23.4161 8.69637 18C8.69637 12.5839 13.0839 8.19643 18.4999 8.19643C23.916 8.19643 28.3035 12.5839 28.3035 18C28.3035 23.4161 23.916 27.8036 18.4999 27.8036Z" fill="currentColor" />
<path d="M18.5006 13.1835C17.2108 13.1835 16.0055 13.6817 15.0934 14.5978C14.1814 15.5098 13.6791 16.7152 13.6791 18.0049C13.6791 19.2947 14.1814 20.5 15.0934 21.4121C16.0055 22.3201 17.2148 22.8264 18.5006 22.8264C19.7863 22.8264 20.9956 22.3241 21.9077 21.4121C22.8157 20.5 23.322 19.2906 23.322 18.0049C23.322 16.7192 22.8197 15.5098 21.9077 14.5978C21.4623 14.1474 20.9316 13.7903 20.3466 13.5475C19.7615 13.3046 19.134 13.1809 18.5006 13.1835Z" fill="currentColor" />
</svg>
