<svg width="14" height="14" viewBox="0 0 14 14" fill="none" xmlns="http://www.w3.org/2000/svg">
<path d="M7.46875 1.37622C7.5519 1.37631 7.59375 1.41798 7.59375 1.50122V6.40747H12.25C12.3333 6.40747 12.375 6.44914 12.375 6.53247V7.46997C12.3749 7.55313 12.3332 7.59497 12.25 7.59497H7.59375V12.5012C7.59367 12.5843 7.55182 12.6261 7.46875 12.6262H6.53125C6.448 12.6262 6.40633 12.5844 6.40625 12.5012V7.59497H1.75C1.66681 7.59494 1.62508 7.5531 1.625 7.46997V6.53247C1.625 6.44917 1.66673 6.4075 1.75 6.40747H6.40625V1.50122C6.40625 1.41789 6.44792 1.37622 6.53125 1.37622H7.46875Z" fill="white"/>
</svg>
